<svg width="576" height="116" viewBox="0 0 576 116" fill="none" xmlns="http://www.w3.org/2000/svg">
<g clip-path="url(#clip0_96_1327)">
<path d="M278.459 86.6296L278.082 89.029C276.574 98.4819 270.759 103.685 261.708 103.685C244.879 103.685 243.57 85.4011 243.57 79.7929C243.57 76.7576 243.933 73.6934 244.623 70.9327L244.665 70.752H290.396V58.6179H235.465L234.683 60.1645C233.595 62.3037 232.692 64.6308 231.995 67.1024C230.844 71.0989 230.261 75.37 230.261 79.7929C230.261 102.471 242.02 116.007 261.715 116.007C277.797 116.007 288.313 106.764 291.32 89.9974L291.918 86.6296H278.459Z" fill="white"/>
<path d="M264.843 36.1493C264.843 36.1493 269.607 28.8139 263.677 19.7152C263.677 19.7152 258.003 10.8838 249.088 12.6327C249.088 12.6327 246.99 12.9218 247.765 16.0583C247.765 16.0583 249.088 22.7144 255.728 25.7352C255.728 25.7352 261.572 28.2936 263.791 34.9207C263.791 34.9207 264.104 36.7419 264.843 36.1565" fill="white"/>
<path d="M245.554 19.0286C245.554 19.0286 240.833 26.3929 246.812 35.4555C246.812 35.4555 252.536 44.2579 261.437 42.4512C261.437 42.4512 263.535 42.1621 262.746 39.0256C262.746 39.0256 261.381 32.3768 254.719 29.3993C254.719 29.3993 248.86 26.8771 246.606 20.2572C246.606 20.2572 246.286 18.436 245.547 19.0286" fill="white"/>
<path d="M52.6131 52.1498V72.0384C49.2502 67.8756 46.2427 65.0138 43.5836 63.46C40.9671 61.8628 37.8957 61.0678 34.3621 61.0678C28.8164 61.0678 24.2163 63.0408 20.5476 66.9867C16.886 70.9399 15.0516 75.8759 15.0516 81.8164C15.0516 87.757 16.822 92.8809 20.3556 96.7835C23.9319 100.686 28.4893 102.637 34.035 102.637C37.5686 102.637 40.6827 101.857 43.3916 100.31C46.008 98.7998 49.0795 95.8729 52.6131 91.5295V111.281C46.6408 114.432 40.6614 116 34.682 116C24.8206 116 16.5731 112.77 9.94672 106.294C3.31321 99.7755 0 91.6813 0 82.0116C0 72.3419 3.35586 64.1827 10.0747 57.5339C16.7935 50.885 25.0339 47.5606 34.81 47.5606C41.088 47.5606 47.0248 49.0928 52.606 52.1498" fill="white"/>
<path d="M78.9197 81.5418C78.9197 87.757 80.555 92.8087 83.8255 96.7112C87.1885 100.657 91.4189 102.63 96.5238 102.63C101.977 102.63 106.378 100.722 109.741 96.9136C113.104 92.9677 114.782 87.9594 114.782 81.8743C114.782 75.7892 113.104 70.7953 109.741 66.8422C106.385 62.983 102.02 61.0534 96.6588 61.0534C91.5966 61.0534 87.3662 63.0119 83.9677 66.9072C80.6047 70.8604 78.9268 75.7313 78.9268 81.5418M113.858 49.3529H128.646V114.135H113.858V107.349C107.793 113.116 101.273 116 94.2913 116C85.4821 116 78.1874 112.77 72.4355 106.287C66.7191 99.6815 63.861 91.4355 63.861 81.5418C63.861 71.6481 66.7191 63.7418 72.4355 57.2664C78.1447 50.7911 85.3044 47.5534 93.9002 47.5534C101.316 47.5534 107.964 50.661 113.858 56.8617V49.3457V49.3529Z" fill="white"/>
<path d="M162.482 63.3227V114.143H147.694V63.3227H142.454V49.3602H147.694V24.3476C147.694 16.1884 149.094 10.4285 151.881 7.05352C155.721 2.35599 161.302 0 168.632 0C171.249 0 174.541 0.780512 178.508 2.32708V17.6266L177.008 16.8244C173.822 15.1839 171.206 14.3672 169.151 14.3672C166.535 14.3672 164.772 15.3212 163.854 17.2291C162.937 19.0864 162.482 22.6782 162.482 28.0045V49.3529H178.515V63.3154H162.482V63.3227Z" fill="white"/>
<path d="M206.713 63.3227V114.143H191.924V63.3227H186.684V49.3602H191.924V24.3476C191.924 16.1884 193.318 10.4285 196.112 7.05352C199.951 2.35599 205.533 0 212.863 0C215.479 0 218.771 0.780512 222.738 2.32708V17.6266L221.238 16.8244C218.053 15.1839 215.437 14.3672 213.389 14.3672C210.765 14.3672 209.002 15.3212 208.085 17.2291C207.168 19.0864 206.713 22.6782 206.713 28.0045V49.3529H222.746V63.3154H206.713V63.3227Z" fill="white"/>
<path d="M323.777 63.3227V114.143H309.06V63.3227H302.774V49.3529H309.06V25.6124H323.777V49.3529H335.231V63.3227H323.777Z" fill="white"/>
<path d="M360.421 63.3227V114.143H345.697V63.3227H339.419V49.3529H345.697V25.6124H360.421V49.3529H371.868V63.3227H360.421Z" fill="white"/>
<path d="M396.611 114.143H381.886V49.3602H396.611V114.143ZM379.661 22.4181C379.661 19.8019 380.599 17.5399 382.476 15.6319C384.353 13.7312 386.593 12.7773 389.216 12.7773C391.84 12.7773 394.151 13.7312 396.02 15.6319C397.897 17.4965 398.836 19.7802 398.836 22.4831C398.836 25.186 397.897 27.4986 396.02 29.4065C394.193 31.3144 391.947 32.2684 389.28 32.2684C386.614 32.2684 384.353 31.3144 382.476 29.4065C380.599 27.4986 379.661 25.1715 379.661 22.4181Z" fill="white"/>
<path d="M415.26 49.3529H430.048V55.3368C435.196 50.1479 440.998 47.5534 447.453 47.5534C454.869 47.5534 460.649 49.9311 464.794 54.672C468.371 58.7046 470.155 65.2884 470.155 74.4233V114.135H455.367V77.9934C455.367 71.6192 454.492 67.2107 452.75 64.7753C451.051 62.2892 447.951 61.0534 443.458 61.0534C438.573 61.0534 435.103 62.6939 433.056 65.9749C431.051 69.2054 430.048 74.8569 430.048 82.9149V114.143H415.26V49.3601V49.3529Z" fill="white"/>
<path d="M500.785 81.549C500.785 88.0244 502.484 93.1483 505.882 96.9136C509.373 100.729 513.981 102.637 519.69 102.637C525.399 102.637 530.049 100.751 533.497 96.9786C536.938 93.2134 538.666 88.1762 538.666 81.8815C538.666 75.5868 536.938 70.5496 533.497 66.7844C530.006 62.9685 525.406 61.0606 519.69 61.0606C513.973 61.0606 509.508 62.9685 506.017 66.7844C502.527 70.6002 500.785 75.5218 500.785 81.549ZM485.733 81.2817C485.733 71.93 489.032 63.9658 495.616 57.4038C502.199 50.8417 510.227 47.5606 519.697 47.5606C529.167 47.5606 537.272 50.8634 543.906 57.4688C550.447 64.0815 553.718 72.1901 553.718 81.8092C553.718 91.4283 550.426 99.6598 543.842 106.222C537.208 112.741 529.075 116 519.434 116C509.793 116 501.879 112.676 495.417 106.027C488.961 99.4647 485.726 91.2187 485.726 81.2817" fill="white"/>
<path d="M572.36 49.9239V51.6656C572.068 51.297 571.798 51.0513 571.571 50.9139C571.343 50.7766 571.073 50.7044 570.76 50.7044C570.277 50.7044 569.871 50.8778 569.552 51.2247C569.224 51.5716 569.068 52.0052 569.068 52.5256C569.068 53.0459 569.224 53.494 569.53 53.8409C569.843 54.1878 570.241 54.354 570.732 54.354C571.037 54.354 571.315 54.2889 571.549 54.1516C571.777 54.0215 572.047 53.7614 572.36 53.3856V55.12C571.834 55.3947 571.308 55.532 570.789 55.532C569.928 55.532 569.203 55.2501 568.62 54.6792C568.044 54.1083 567.746 53.4 567.746 52.5545C567.746 51.7089 568.037 50.9934 568.627 50.4081C569.217 49.8299 569.943 49.5336 570.796 49.5336C571.343 49.5336 571.869 49.6637 572.353 49.9383" fill="white"/>
<path d="M570.632 48.2183C568.3 48.2183 566.402 50.1479 566.402 52.5256C566.402 54.9032 568.3 56.8256 570.632 56.8256C572.964 56.8256 574.862 54.896 574.862 52.5256C574.862 50.1551 572.964 48.2183 570.632 48.2183ZM570.632 57.9819C567.667 57.9819 565.264 55.532 565.264 52.5256C565.264 49.5192 567.674 47.0692 570.632 47.0692C573.59 47.0692 576 49.5192 576 52.5256C576 55.532 573.59 57.9819 570.632 57.9819Z" fill="white"/>
</g>
<defs>
<clipPath id="clip0_96_1327">
<rect width="576" height="116" fill="white"/>
</clipPath>
</defs>
</svg>
