<svg width="172" height="45" viewBox="0 0 172 45" fill="none" xmlns="http://www.w3.org/2000/svg">
<mask id="path-1-inside-1_27_676" fill="white">
<path d="M31.2463 37.309C31.2463 37.309 38.4944 25.9383 29.4722 11.834C29.4722 11.834 20.8394 -1.85567 7.27361 0.855383C7.27361 0.855383 4.08231 1.30349 5.26148 6.16547C5.26148 6.16547 7.27361 16.4832 17.3776 21.1659C17.3776 21.1659 26.27 25.1317 29.6453 35.4046C29.6453 35.4046 30.1213 38.2277 31.2463 37.3202"/>
</mask>
<path d="M29.4722 11.834L28.6263 12.3675L28.6298 12.3729L29.4722 11.834ZM7.27361 0.855383L7.41266 1.84567L7.44126 1.84165L7.46958 1.83599L7.27361 0.855383ZM5.26148 6.16547L6.24299 5.97406L6.23865 5.95181L6.2333 5.92978L5.26148 6.16547ZM17.3776 21.1659L16.9571 22.0732L16.9637 22.0763L16.9703 22.0792L17.3776 21.1659ZM29.6453 35.4046L30.6313 35.2383L30.6188 35.164L30.5953 35.0924L29.6453 35.4046ZM31.2463 37.309C32.0896 37.8465 32.0899 37.846 32.0903 37.8455C32.0904 37.8452 32.0908 37.8447 32.0911 37.8442C32.0917 37.8432 32.0924 37.8421 32.0933 37.8407C32.0949 37.8381 32.097 37.8348 32.0996 37.8307C32.1046 37.8227 32.1113 37.8118 32.1197 37.7982C32.1363 37.771 32.1593 37.7329 32.188 37.6839C32.2454 37.5861 32.3255 37.4453 32.4224 37.2636C32.6163 36.9003 32.8779 36.3728 33.1603 35.6981C33.7248 34.3497 34.3753 32.4069 34.7317 30.0076C35.4472 25.1918 34.9707 18.5739 30.3146 11.2952L28.6298 12.3729C32.9959 19.1984 33.4065 25.318 32.7534 29.7137C32.4257 31.92 31.828 33.7015 31.3154 34.9258C31.0594 35.5375 30.8252 36.0086 30.6579 36.3222C30.5742 36.479 30.5074 36.5962 30.463 36.6718C30.4408 36.7097 30.4243 36.737 30.4141 36.7537C30.4089 36.7621 30.4054 36.7678 30.4035 36.7708C30.4026 36.7722 30.4021 36.773 30.402 36.7732C30.402 36.7732 30.4021 36.7731 30.4022 36.7729C30.4023 36.7727 30.4025 36.7724 30.4026 36.7723C30.4028 36.7719 30.4031 36.7715 31.2463 37.309ZM29.4722 11.834C30.318 11.3006 30.3178 11.3003 30.3175 11.2998C30.3174 11.2996 30.3171 11.2991 30.3168 11.2987C30.3163 11.2978 30.3156 11.2968 30.3148 11.2955C30.3132 11.293 30.311 11.2896 30.3083 11.2854C30.303 11.277 30.2955 11.2654 30.2859 11.2507C30.2668 11.2212 30.2393 11.1791 30.2034 11.1255C30.1317 11.0182 30.0268 10.8644 29.8896 10.6714C29.6151 10.2857 29.2107 9.74265 28.6835 9.10196C27.6306 7.82256 26.0792 6.14295 24.0848 4.54724C20.1024 1.36085 14.2577 -1.56013 7.07764 -0.125227L7.46958 1.83599C13.8553 0.559837 19.1099 3.12819 22.8353 6.1089C24.6949 7.59674 26.1494 9.17012 27.1392 10.3728C27.6332 10.9732 28.0093 11.4785 28.2599 11.8308C28.3852 12.0069 28.479 12.1445 28.5404 12.2365C28.5711 12.2824 28.5937 12.3169 28.608 12.3391C28.6152 12.3501 28.6203 12.3581 28.6234 12.3629C28.6249 12.3653 28.6259 12.3668 28.6264 12.3676C28.6266 12.368 28.6268 12.3682 28.6267 12.3681C28.6267 12.3681 28.6266 12.368 28.6266 12.368C28.6265 12.3677 28.6263 12.3675 29.4722 11.834ZM7.27361 0.855383C7.13456 -0.134902 7.1338 -0.134795 7.13303 -0.134686C7.13275 -0.134647 7.13196 -0.134534 7.13141 -0.134455C7.13031 -0.134297 7.12916 -0.13413 7.12796 -0.133954C7.12555 -0.1336 7.12293 -0.133209 7.12011 -0.132777C7.11446 -0.131914 7.108 -0.13089 7.10076 -0.129687C7.08627 -0.127282 7.0686 -0.124157 7.04801 -0.120171C7.00687 -0.112207 6.95377 -0.100749 6.89079 -0.084627C6.76526 -0.0524908 6.59782 -0.00114977 6.406 0.0794561C6.02362 0.240135 5.52874 0.523916 5.08341 1.01672C4.14804 2.05182 3.64729 3.75257 4.28965 6.40117L6.2333 5.92978C5.6965 3.7164 6.20182 2.7621 6.5673 2.35765C6.7724 2.13068 7.00165 1.99856 7.18079 1.92328C7.26973 1.88591 7.3424 1.86426 7.38679 1.85289C7.40877 1.84727 7.42308 1.84435 7.42812 1.84338C7.43061 1.84289 7.43072 1.84291 7.42823 1.84332C7.42699 1.84353 7.42508 1.84383 7.4225 1.84423C7.42121 1.84443 7.41975 1.84465 7.41811 1.84489C7.41729 1.84501 7.41643 1.84513 7.41552 1.84526C7.41507 1.84533 7.41435 1.84543 7.41412 1.84546C7.4134 1.84556 7.41266 1.84567 7.27361 0.855383ZM5.26148 6.16547C4.27997 6.35688 4.28006 6.35733 4.28015 6.35782C4.28019 6.35804 4.2803 6.35857 4.28038 6.359C4.28055 6.35987 4.28076 6.36089 4.28099 6.36207C4.28146 6.36443 4.28206 6.36742 4.28278 6.37103C4.28424 6.37824 4.28623 6.38794 4.28876 6.40005C4.29383 6.42429 4.30111 6.45821 4.31078 6.50132C4.33011 6.58754 4.35904 6.71059 4.39906 6.86655C4.47909 7.17836 4.60366 7.6223 4.78498 8.16676C5.14729 9.25464 5.73825 10.75 6.65731 12.397C8.49522 15.6905 11.6631 19.6197 16.9571 22.0732L17.7981 20.2586C12.9881 18.0294 10.0979 14.4583 8.40378 11.4224C7.55681 9.90457 7.01323 8.52783 6.68252 7.5348C6.51733 7.03881 6.40576 6.6401 6.33628 6.36937C6.30155 6.23405 6.27738 6.13086 6.2623 6.06366C6.25477 6.03006 6.24951 6.00547 6.24635 5.99037C6.24477 5.98282 6.24372 5.97765 6.24316 5.97491C6.24289 5.97354 6.24274 5.97278 6.24271 5.97264C6.24269 5.97256 6.24271 5.97265 6.24276 5.97288C6.24278 5.973 6.24284 5.9733 6.24285 5.97335C6.24291 5.97369 6.24299 5.97406 5.26148 6.16547ZM17.3776 21.1659C16.9703 22.0792 16.97 22.0791 16.9697 22.0789C16.9696 22.0789 16.9694 22.0788 16.9693 22.0787C16.969 22.0786 16.969 22.0786 16.969 22.0786C16.9691 22.0787 16.9697 22.0789 16.9709 22.0795C16.9732 22.0805 16.9776 22.0825 16.984 22.0855C16.9969 22.0914 17.018 22.1013 17.0467 22.115C17.1043 22.1426 17.1929 22.1859 17.3088 22.2456C17.5407 22.3649 17.8821 22.5494 18.305 22.8034C19.1515 23.3117 20.321 24.0961 21.5936 25.191C24.1399 27.3817 27.0787 30.7967 28.6952 35.7167L30.5953 35.0924C28.8366 29.7395 25.6416 26.0353 22.8979 23.6748C21.5255 22.4941 20.2609 21.645 19.3346 21.0888C18.8712 20.8105 18.4914 20.6048 18.2238 20.4672C18.09 20.3983 17.9842 20.3464 17.9099 20.3109C17.8727 20.2931 17.8435 20.2794 17.8225 20.2697C17.812 20.2649 17.8036 20.261 17.7973 20.2582C17.7942 20.2568 17.7916 20.2556 17.7895 20.2547C17.7885 20.2542 17.7876 20.2538 17.7868 20.2535C17.7864 20.2533 17.786 20.2531 17.7858 20.253C17.7853 20.2528 17.7849 20.2526 17.3776 21.1659ZM29.6453 35.4046C28.6592 35.5708 28.6592 35.5711 28.6593 35.5713C28.6593 35.5714 28.6593 35.5716 28.6593 35.5718C28.6594 35.5722 28.6595 35.5726 28.6596 35.5731C28.6597 35.574 28.6599 35.5751 28.6601 35.5763C28.6605 35.5789 28.6611 35.5821 28.6618 35.5859C28.6631 35.5937 28.665 35.6041 28.6674 35.6169C28.6721 35.6425 28.6788 35.6781 28.6877 35.7218C28.7053 35.8091 28.7314 35.9305 28.7667 36.0725C28.8355 36.3497 28.9462 36.7349 29.108 37.1041C29.2522 37.4331 29.511 37.9278 29.9617 38.2323C30.2159 38.4041 30.5485 38.5261 30.9342 38.4953C31.3085 38.4653 31.6243 38.3001 31.8741 38.0986L30.6185 36.5419C30.5871 36.5672 30.6419 36.5123 30.7748 36.5016C30.9192 36.4901 31.03 36.5404 31.0814 36.5751C31.1264 36.6056 31.0552 36.5646 30.9398 36.3012C30.842 36.0781 30.7633 35.8143 30.7077 35.5905C30.6808 35.482 30.661 35.39 30.6482 35.3264C30.6418 35.2947 30.6372 35.2705 30.6344 35.2552C30.633 35.2476 30.632 35.2422 30.6315 35.2394C30.6313 35.2379 30.6311 35.2371 30.6311 35.2369C30.6311 35.2368 30.6311 35.2369 30.6311 35.2371C30.6312 35.2372 30.6312 35.2374 30.6312 35.2376C30.6312 35.2377 30.6313 35.2379 30.6313 35.2379C30.6313 35.2381 30.6313 35.2383 29.6453 35.4046Z" fill="#1B100F" mask="url(#path-1-inside-1_27_676)"/>
<mask id="path-3-inside-2_27_676" fill="white">
<path d="M2.68154 12.6595C2.68154 12.6595 -4.47179 22.5671 4.58841 34.7595C4.58841 34.7595 13.2608 46.6019 26.7487 44.1712C26.7487 44.1712 29.9268 43.7823 28.731 39.5626C28.731 39.5626 26.6625 30.6176 16.5681 26.6118C16.5681 26.6118 7.69106 23.2185 4.27598 14.3124C4.27598 14.3124 3.79116 11.8623 2.67076 12.6595"/>
</mask>
<path d="M4.58841 34.7595L5.39522 34.1686L5.39106 34.163L4.58841 34.7595ZM26.7487 44.1712L26.6272 43.1786L26.5992 43.182L26.5714 43.187L26.7487 44.1712ZM28.731 39.5626L27.7567 39.7878L27.7622 39.8117L27.7689 39.8352L28.731 39.5626ZM16.5681 26.6118L16.937 25.6822L16.9252 25.6777L16.5681 26.6118ZM4.27598 14.3124L3.295 14.5065L3.31162 14.5905L3.34227 14.6705L4.27598 14.3124ZM2.68154 12.6595C1.87078 12.0742 1.87042 12.0747 1.87002 12.0752C1.86985 12.0754 1.86943 12.076 1.8691 12.0765C1.86843 12.0774 1.86765 12.0785 1.86676 12.0798C1.86499 12.0822 1.86279 12.0853 1.86018 12.089C1.85494 12.0964 1.84804 12.1062 1.83956 12.1185C1.8226 12.1429 1.79933 12.177 1.77045 12.2205C1.71271 12.3074 1.63254 12.4319 1.53575 12.5923C1.34226 12.9128 1.0818 13.3773 0.801302 13.9708C0.240884 15.1565 -0.403558 16.8655 -0.749431 18.9756C-1.44575 23.2237 -0.917641 29.0265 3.78576 35.3559L5.39106 34.163C1.03426 28.3 0.608929 23.0529 1.22423 19.2991C1.53417 17.4083 2.1118 15.8784 2.6095 14.8254C2.85806 14.2995 3.08567 13.8948 3.24799 13.6258C3.3291 13.4915 3.39376 13.3913 3.43639 13.3271C3.45769 13.295 3.47348 13.272 3.48303 13.2582C3.48781 13.2513 3.49103 13.2467 3.49261 13.2445C3.4934 13.2434 3.49377 13.2429 3.49372 13.2429C3.4937 13.243 3.49357 13.2432 3.49334 13.2435C3.49322 13.2436 3.49296 13.244 3.4929 13.2441C3.49262 13.2445 3.4923 13.2449 2.68154 12.6595ZM4.58841 34.7595C3.78161 35.3503 3.78189 35.3507 3.7822 35.3511C3.78234 35.3513 3.78269 35.3518 3.78298 35.3522C3.78357 35.353 3.78429 35.354 3.78515 35.3551C3.78686 35.3575 3.78911 35.3605 3.79189 35.3642C3.79744 35.3717 3.80512 35.382 3.81492 35.395C3.8345 35.421 3.86254 35.4579 3.8989 35.5048C3.97163 35.5985 4.07774 35.7325 4.21631 35.9003C4.49335 36.2358 4.9007 36.7071 5.43095 37.2625C6.49009 38.3717 8.0471 39.8243 10.043 41.2002C14.033 43.9506 19.8389 46.4325 26.9261 45.1553L26.5714 43.187C20.1705 44.3405 14.8963 42.1166 11.1781 39.5535C9.31997 38.2726 7.86589 36.9165 6.87747 35.8813C6.38394 35.3644 6.00839 34.9295 5.75847 34.6269C5.63356 34.4756 5.54018 34.3575 5.47929 34.279C5.44884 34.2398 5.42653 34.2104 5.41248 34.1918C5.40545 34.1824 5.40049 34.1758 5.3976 34.1719C5.39616 34.1699 5.39524 34.1687 5.39484 34.1682C5.39464 34.1679 5.39457 34.1678 5.39463 34.1679C5.39466 34.1679 5.3948 34.1681 5.39482 34.1681C5.395 34.1684 5.39521 34.1687 4.58841 34.7595ZM26.7487 44.1712C26.8702 45.1638 26.8708 45.1637 26.8715 45.1636C26.8718 45.1636 26.8725 45.1635 26.873 45.1634C26.8739 45.1633 26.875 45.1632 26.8761 45.163C26.8782 45.1628 26.8806 45.1624 26.8832 45.1621C26.8883 45.1614 26.8942 45.1606 26.901 45.1596C26.9144 45.1577 26.931 45.1551 26.9505 45.1518C26.9894 45.1453 27.0402 45.1357 27.1008 45.1222C27.2214 45.0953 27.3839 45.0519 27.5709 44.9833C27.9408 44.8477 28.434 44.6033 28.884 44.1676C29.8564 43.2258 30.365 41.6608 29.6931 39.2899L27.7689 39.8352C28.2928 41.6841 27.8102 42.4233 27.4926 42.7309C27.2975 42.9198 27.0709 43.0365 26.8824 43.1056C26.7901 43.1394 26.7136 43.1594 26.6651 43.1702C26.6411 43.1756 26.6248 43.1785 26.6177 43.1797C26.6142 43.1803 26.6131 43.1804 26.6146 43.1802C26.6154 43.1801 26.6168 43.1799 26.6189 43.1796C26.6199 43.1795 26.6211 43.1793 26.6225 43.1792C26.6232 43.1791 26.624 43.179 26.6248 43.1789C26.6251 43.1788 26.6258 43.1788 26.626 43.1787C26.6266 43.1787 26.6272 43.1786 26.7487 44.1712ZM28.731 39.5626C29.7053 39.3373 29.7051 39.3368 29.705 39.3362C29.705 39.336 29.7048 39.3354 29.7047 39.335C29.7045 39.3341 29.7043 39.3331 29.704 39.3319C29.7035 39.3296 29.7028 39.3267 29.702 39.3233C29.7003 39.3165 29.6981 39.3075 29.6954 39.2964C29.6899 39.2742 29.6821 39.2436 29.6719 39.2051C29.6515 39.1279 29.6212 39.0188 29.5796 38.8811C29.4964 38.6058 29.3678 38.2159 29.1816 37.7388C28.8096 36.7854 28.2061 35.4794 27.2734 34.0444C25.4049 31.1696 22.2131 27.776 16.937 25.6823L16.1993 27.5413C21.0176 29.4533 23.9072 32.5352 25.5965 35.1343C26.4427 36.4363 26.9872 37.6168 27.3185 38.4658C27.4839 38.8899 27.5958 39.2301 27.6651 39.4596C27.6998 39.5744 27.7238 39.6613 27.7386 39.7172C27.746 39.7451 27.7511 39.7652 27.754 39.7772C27.7555 39.7831 27.7565 39.787 27.7569 39.7888C27.7571 39.7897 27.7572 39.7901 27.7572 39.7899C27.7571 39.7899 27.7571 39.7896 27.757 39.7893C27.757 39.7891 27.7569 39.7888 27.7569 39.7887C27.7568 39.7883 27.7567 39.7878 28.731 39.5626ZM16.5681 26.6118C16.9252 25.6777 16.9255 25.6778 16.9258 25.6779C16.9258 25.6779 16.926 25.678 16.9261 25.6781C16.9263 25.6781 16.9264 25.6782 16.9263 25.6781C16.9261 25.6781 16.9254 25.6778 16.9242 25.6773C16.9218 25.6764 16.9173 25.6746 16.9107 25.672C16.8976 25.6668 16.8763 25.6583 16.8473 25.6464C16.7893 25.6226 16.7004 25.5852 16.5841 25.5339C16.3515 25.4311 16.0098 25.2724 15.5865 25.0539C14.7392 24.6163 13.5702 23.9415 12.2982 22.9985C9.74873 21.1086 6.82783 18.1743 5.20969 13.9544L3.34227 14.6705C5.13921 19.3566 8.36438 22.572 11.1072 24.6052C12.4813 25.6239 13.7451 26.354 14.6689 26.831C15.1313 27.0697 15.5097 27.2457 15.7759 27.3633C15.9091 27.4221 16.0142 27.4664 16.0879 27.4966C16.1247 27.5117 16.1537 27.5233 16.1744 27.5315C16.1847 27.5356 16.193 27.5389 16.1991 27.5412C16.2022 27.5424 16.2047 27.5434 16.2067 27.5442C16.2077 27.5446 16.2086 27.5449 16.2093 27.5452C16.2097 27.5453 16.2101 27.5455 16.2103 27.5456C16.2107 27.5457 16.2111 27.5459 16.5681 26.6118ZM4.27598 14.3124C5.25696 14.1183 5.25691 14.1181 5.25686 14.1178C5.25684 14.1177 5.25678 14.1174 5.25674 14.1172C5.25667 14.1168 5.25658 14.1164 5.25648 14.1159C5.25629 14.115 5.25607 14.1139 5.25582 14.1126C5.25531 14.1101 5.25468 14.107 5.25392 14.1033C5.25241 14.096 5.25038 14.0863 5.24783 14.0745C5.24274 14.0509 5.23555 14.0185 5.22622 13.979C5.20762 13.9002 5.18012 13.7911 5.1432 13.6637C5.07142 13.416 4.95522 13.0681 4.78458 12.7331C4.62946 12.4286 4.35467 11.9821 3.89546 11.7161C3.64299 11.5699 3.33253 11.4777 2.98441 11.5046C2.64346 11.531 2.34303 11.6654 2.09098 11.8448L3.25054 13.4743C3.27859 13.4543 3.2384 13.491 3.13841 13.4987C3.03127 13.507 2.9425 13.4754 2.89304 13.4468C2.83984 13.416 2.89632 13.4325 3.00246 13.6409C3.09308 13.8188 3.16811 14.0336 3.22224 14.2204C3.24828 14.3102 3.26741 14.3863 3.2797 14.4384C3.28581 14.4643 3.29013 14.4838 3.29269 14.4957C3.29397 14.5016 3.2948 14.5056 3.29518 14.5075C3.29537 14.5084 3.29546 14.5088 3.29542 14.5087C3.29541 14.5086 3.29537 14.5084 3.29529 14.508C3.29526 14.5078 3.29522 14.5076 3.29517 14.5074C3.29514 14.5073 3.2951 14.507 3.29509 14.507C3.29504 14.5068 3.295 14.5065 4.27598 14.3124Z" fill="#1B100F" mask="url(#path-3-inside-2_27_676)"/>
<mask id="path-5-inside-3_27_676" fill="white">
<path d="M77.2463 37.309C77.2463 37.309 84.4944 25.9383 75.4722 11.834C75.4722 11.834 66.8394 -1.85567 53.2736 0.855383C53.2736 0.855383 50.0823 1.30349 51.2615 6.16547C51.2615 6.16547 53.2736 16.4832 63.3776 21.1659C63.3776 21.1659 72.27 25.1317 75.6453 35.4046C75.6453 35.4046 76.1213 38.2277 77.2463 37.3202"/>
</mask>
<path d="M75.4722 11.834L74.6263 12.3675L74.6298 12.3729L75.4722 11.834ZM53.2736 0.855383L53.4127 1.84567L53.4413 1.84165L53.4696 1.83599L53.2736 0.855383ZM51.2615 6.16547L52.243 5.97406L52.2386 5.95181L52.2333 5.92978L51.2615 6.16547ZM63.3776 21.1659L62.9571 22.0732L62.9637 22.0763L62.9703 22.0792L63.3776 21.1659ZM75.6453 35.4046L76.6313 35.2383L76.6188 35.164L76.5953 35.0924L75.6453 35.4046ZM77.2463 37.309C78.0896 37.8465 78.0899 37.846 78.0903 37.8455C78.0904 37.8452 78.0908 37.8447 78.0911 37.8442C78.0917 37.8432 78.0924 37.8421 78.0933 37.8407C78.0949 37.8381 78.097 37.8348 78.0996 37.8307C78.1046 37.8227 78.1113 37.8118 78.1197 37.7982C78.1363 37.771 78.1593 37.7329 78.188 37.6839C78.2454 37.5861 78.3255 37.4453 78.4224 37.2636C78.6163 36.9003 78.8779 36.3728 79.1603 35.6981C79.7248 34.3497 80.3753 32.4069 80.7317 30.0076C81.4472 25.1918 80.9707 18.5739 76.3146 11.2952L74.6298 12.3729C78.9959 19.1984 79.4065 25.318 78.7534 29.7137C78.4257 31.92 77.828 33.7015 77.3154 34.9258C77.0594 35.5375 76.8252 36.0086 76.6579 36.3222C76.5742 36.479 76.5074 36.5962 76.463 36.6718C76.4408 36.7097 76.4243 36.737 76.4141 36.7537C76.4089 36.7621 76.4054 36.7678 76.4035 36.7708C76.4026 36.7722 76.4021 36.773 76.402 36.7732C76.402 36.7732 76.4021 36.7731 76.4022 36.7729C76.4023 36.7727 76.4025 36.7724 76.4026 36.7723C76.4028 36.7719 76.4031 36.7715 77.2463 37.309ZM75.4722 11.834C76.318 11.3006 76.3178 11.3003 76.3175 11.2998C76.3174 11.2996 76.3171 11.2991 76.3168 11.2987C76.3163 11.2978 76.3156 11.2968 76.3148 11.2955C76.3132 11.293 76.311 11.2896 76.3083 11.2854C76.303 11.277 76.2955 11.2654 76.2859 11.2507C76.2668 11.2212 76.2393 11.1791 76.2034 11.1255C76.1317 11.0182 76.0268 10.8644 75.8896 10.6714C75.6151 10.2857 75.2107 9.74265 74.6835 9.10196C73.6306 7.82256 72.0792 6.14295 70.0848 4.54724C66.1024 1.36085 60.2577 -1.56013 53.0776 -0.125227L53.4696 1.83599C59.8553 0.559837 65.1099 3.12819 68.8353 6.1089C70.6949 7.59674 72.1494 9.17012 73.1392 10.3728C73.6332 10.9732 74.0093 11.4785 74.2599 11.8308C74.3852 12.0069 74.479 12.1445 74.5404 12.2365C74.5711 12.2824 74.5937 12.3169 74.608 12.3391C74.6152 12.3501 74.6203 12.3581 74.6234 12.3629C74.6249 12.3653 74.6259 12.3668 74.6264 12.3676C74.6266 12.368 74.6268 12.3682 74.6267 12.3681C74.6267 12.3681 74.6266 12.368 74.6266 12.368C74.6265 12.3677 74.6263 12.3675 75.4722 11.834ZM53.2736 0.855383C53.1346 -0.134902 53.1338 -0.134795 53.133 -0.134686C53.1328 -0.134647 53.132 -0.134534 53.1314 -0.134455C53.1303 -0.134297 53.1292 -0.13413 53.128 -0.133954C53.1255 -0.1336 53.1229 -0.133209 53.1201 -0.132777C53.1145 -0.131914 53.108 -0.13089 53.1008 -0.129687C53.0863 -0.127282 53.0686 -0.124157 53.048 -0.120171C53.0069 -0.112207 52.9538 -0.100749 52.8908 -0.084627C52.7653 -0.0524908 52.5978 -0.00114977 52.406 0.0794561C52.0236 0.240135 51.5287 0.523916 51.0834 1.01672C50.148 2.05182 49.6473 3.75257 50.2897 6.40117L52.2333 5.92978C51.6965 3.7164 52.2018 2.7621 52.5673 2.35765C52.7724 2.13068 53.0017 1.99856 53.1808 1.92328C53.2697 1.88591 53.3424 1.86426 53.3868 1.85289C53.4088 1.84727 53.4231 1.84435 53.4281 1.84338C53.4306 1.84289 53.4307 1.84291 53.4282 1.84332C53.427 1.84353 53.4251 1.84383 53.4225 1.84423C53.4212 1.84443 53.4197 1.84465 53.4181 1.84489C53.4173 1.84501 53.4164 1.84513 53.4155 1.84526C53.4151 1.84533 53.4144 1.84543 53.4141 1.84546C53.4134 1.84556 53.4127 1.84567 53.2736 0.855383ZM51.2615 6.16547C50.28 6.35688 50.2801 6.35733 50.2802 6.35782C50.2802 6.35804 50.2803 6.35857 50.2804 6.359C50.2806 6.35987 50.2808 6.36089 50.281 6.36207C50.2815 6.36443 50.2821 6.36742 50.2828 6.37103C50.2842 6.37824 50.2862 6.38794 50.2888 6.40005C50.2938 6.42429 50.3011 6.45821 50.3108 6.50132C50.3301 6.58754 50.359 6.71059 50.3991 6.86655C50.4791 7.17836 50.6037 7.6223 50.785 8.16676C51.1473 9.25464 51.7383 10.75 52.6573 12.397C54.4952 15.6905 57.6631 19.6197 62.9571 22.0732L63.7981 20.2586C58.9881 18.0294 56.0979 14.4583 54.4038 11.4224C53.5568 9.90457 53.0132 8.52783 52.6825 7.5348C52.5173 7.03881 52.4058 6.6401 52.3363 6.36937C52.3016 6.23405 52.2774 6.13086 52.2623 6.06366C52.2548 6.03006 52.2495 6.00547 52.2464 5.99037C52.2448 5.98282 52.2437 5.97765 52.2432 5.97491C52.2429 5.97354 52.2427 5.97278 52.2427 5.97264C52.2427 5.97256 52.2427 5.97265 52.2428 5.97288C52.2428 5.973 52.2428 5.9733 52.2428 5.97335C52.2429 5.97369 52.243 5.97406 51.2615 6.16547ZM63.3776 21.1659C62.9703 22.0792 62.97 22.0791 62.9697 22.0789C62.9696 22.0789 62.9694 22.0788 62.9693 22.0787C62.969 22.0786 62.969 22.0786 62.969 22.0786C62.9691 22.0787 62.9697 22.0789 62.9709 22.0795C62.9732 22.0805 62.9776 22.0825 62.984 22.0855C62.9969 22.0914 63.018 22.1013 63.0467 22.115C63.1043 22.1426 63.1929 22.1859 63.3088 22.2456C63.5407 22.3649 63.8821 22.5494 64.305 22.8034C65.1515 23.3117 66.321 24.0961 67.5936 25.191C70.1399 27.3817 73.0787 30.7967 74.6952 35.7167L76.5953 35.0924C74.8366 29.7395 71.6416 26.0353 68.8979 23.6748C67.5255 22.4941 66.2609 21.645 65.3346 21.0888C64.8712 20.8105 64.4914 20.6048 64.2238 20.4672C64.09 20.3983 63.9842 20.3464 63.9099 20.3109C63.8727 20.2931 63.8435 20.2794 63.8225 20.2697C63.812 20.2649 63.8036 20.261 63.7973 20.2582C63.7942 20.2568 63.7916 20.2556 63.7895 20.2547C63.7885 20.2542 63.7876 20.2538 63.7868 20.2535C63.7864 20.2533 63.786 20.2531 63.7858 20.253C63.7853 20.2528 63.7849 20.2526 63.3776 21.1659ZM75.6453 35.4046C74.6592 35.5708 74.6592 35.5711 74.6593 35.5713C74.6593 35.5714 74.6593 35.5716 74.6593 35.5718C74.6594 35.5722 74.6595 35.5726 74.6596 35.5731C74.6597 35.574 74.6599 35.5751 74.6601 35.5763C74.6605 35.5789 74.6611 35.5821 74.6618 35.5859C74.6631 35.5937 74.665 35.6041 74.6674 35.6169C74.6721 35.6425 74.6788 35.6781 74.6877 35.7218C74.7053 35.8091 74.7314 35.9305 74.7667 36.0725C74.8355 36.3497 74.9462 36.7349 75.108 37.1041C75.2522 37.4331 75.511 37.9278 75.9617 38.2323C76.2159 38.4041 76.5485 38.5261 76.9342 38.4953C77.3085 38.4653 77.6243 38.3001 77.8741 38.0986L76.6185 36.5419C76.5871 36.5672 76.6419 36.5123 76.7748 36.5016C76.9192 36.4901 77.03 36.5404 77.0814 36.5751C77.1264 36.6056 77.0552 36.5646 76.9398 36.3012C76.842 36.0781 76.7633 35.8143 76.7077 35.5905C76.6808 35.482 76.661 35.39 76.6482 35.3264C76.6418 35.2947 76.6372 35.2705 76.6344 35.2552C76.633 35.2476 76.632 35.2422 76.6315 35.2394C76.6313 35.2379 76.6311 35.2371 76.6311 35.2369C76.6311 35.2368 76.6311 35.2369 76.6311 35.2371C76.6312 35.2372 76.6312 35.2374 76.6312 35.2376C76.6312 35.2377 76.6313 35.2379 76.6313 35.2379C76.6313 35.2381 76.6313 35.2383 75.6453 35.4046Z" fill="#1B100F" mask="url(#path-5-inside-3_27_676)"/>
<mask id="path-7-inside-4_27_676" fill="white">
<path d="M48.6815 12.6595C48.6815 12.6595 41.5282 22.5671 50.5884 34.7595C50.5884 34.7595 59.2608 46.6019 72.7487 44.1712C72.7487 44.1712 75.9268 43.7823 74.731 39.5626C74.731 39.5626 72.6625 30.6176 62.5681 26.6118C62.5681 26.6118 53.6911 23.2185 50.276 14.3124C50.276 14.3124 49.7912 11.8623 48.6708 12.6595"/>
</mask>
<path d="M50.5884 34.7595L51.3952 34.1686L51.3911 34.163L50.5884 34.7595ZM72.7487 44.1712L72.6272 43.1786L72.5992 43.182L72.5714 43.187L72.7487 44.1712ZM74.731 39.5626L73.7567 39.7878L73.7622 39.8117L73.7689 39.8352L74.731 39.5626ZM62.5681 26.6118L62.937 25.6822L62.9252 25.6777L62.5681 26.6118ZM50.276 14.3124L49.295 14.5065L49.3116 14.5905L49.3423 14.6705L50.276 14.3124ZM48.6815 12.6595C47.8708 12.0742 47.8704 12.0747 47.87 12.0752C47.8699 12.0754 47.8694 12.076 47.8691 12.0765C47.8684 12.0774 47.8677 12.0785 47.8668 12.0798C47.865 12.0822 47.8628 12.0853 47.8602 12.089C47.8549 12.0964 47.848 12.1062 47.8396 12.1185C47.8226 12.1429 47.7993 12.177 47.7705 12.2205C47.7127 12.3074 47.6325 12.4319 47.5357 12.5923C47.3423 12.9128 47.0818 13.3773 46.8013 13.9708C46.2409 15.1565 45.5964 16.8655 45.2506 18.9756C44.5543 23.2237 45.0824 29.0265 49.7858 35.3559L51.3911 34.163C47.0343 28.3 46.6089 23.0529 47.2242 19.2991C47.5342 17.4083 48.1118 15.8784 48.6095 14.8254C48.8581 14.2995 49.0857 13.8948 49.248 13.6258C49.3291 13.4915 49.3938 13.3913 49.4364 13.3271C49.4577 13.295 49.4735 13.272 49.483 13.2582C49.4878 13.2513 49.491 13.2467 49.4926 13.2445C49.4934 13.2434 49.4938 13.2429 49.4937 13.2429C49.4937 13.243 49.4936 13.2432 49.4933 13.2435C49.4932 13.2436 49.493 13.244 49.4929 13.2441C49.4926 13.2445 49.4923 13.2449 48.6815 12.6595ZM50.5884 34.7595C49.7816 35.3503 49.7819 35.3507 49.7822 35.3511C49.7823 35.3513 49.7827 35.3518 49.783 35.3522C49.7836 35.353 49.7843 35.354 49.7852 35.3551C49.7869 35.3575 49.7891 35.3605 49.7919 35.3642C49.7974 35.3717 49.8051 35.382 49.8149 35.395C49.8345 35.421 49.8625 35.4579 49.8989 35.5048C49.9716 35.5985 50.0777 35.7325 50.2163 35.9003C50.4933 36.2358 50.9007 36.7071 51.4309 37.2625C52.4901 38.3717 54.0471 39.8243 56.043 41.2002C60.033 43.9506 65.8389 46.4325 72.9261 45.1553L72.5714 43.187C66.1705 44.3405 60.8963 42.1166 57.1781 39.5535C55.32 38.2726 53.8659 36.9165 52.8775 35.8813C52.3839 35.3644 52.0084 34.9295 51.7585 34.6269C51.6336 34.4756 51.5402 34.3575 51.4793 34.279C51.4488 34.2398 51.4265 34.2104 51.4125 34.1918C51.4054 34.1824 51.4005 34.1758 51.3976 34.1719C51.3962 34.1699 51.3952 34.1687 51.3948 34.1682C51.3946 34.1679 51.3946 34.1678 51.3946 34.1679C51.3947 34.1679 51.3948 34.1681 51.3948 34.1681C51.395 34.1684 51.3952 34.1687 50.5884 34.7595ZM72.7487 44.1712C72.8702 45.1638 72.8708 45.1637 72.8715 45.1636C72.8718 45.1636 72.8725 45.1635 72.873 45.1634C72.8739 45.1633 72.875 45.1632 72.8761 45.163C72.8782 45.1628 72.8806 45.1624 72.8832 45.1621C72.8883 45.1614 72.8942 45.1606 72.901 45.1596C72.9144 45.1577 72.931 45.1551 72.9505 45.1518C72.9894 45.1453 73.0402 45.1357 73.1008 45.1222C73.2214 45.0953 73.3839 45.0519 73.5709 44.9833C73.9408 44.8477 74.434 44.6033 74.884 44.1676C75.8564 43.2258 76.365 41.6608 75.6931 39.2899L73.7689 39.8352C74.2928 41.6841 73.8102 42.4233 73.4926 42.7309C73.2975 42.9198 73.0709 43.0365 72.8824 43.1056C72.7901 43.1394 72.7136 43.1594 72.6651 43.1702C72.6411 43.1756 72.6248 43.1785 72.6177 43.1797C72.6142 43.1803 72.6131 43.1804 72.6146 43.1802C72.6154 43.1801 72.6168 43.1799 72.6189 43.1796C72.6199 43.1795 72.6211 43.1793 72.6225 43.1792C72.6232 43.1791 72.624 43.179 72.6248 43.1789C72.6251 43.1788 72.6258 43.1788 72.626 43.1787C72.6266 43.1787 72.6272 43.1786 72.7487 44.1712ZM74.731 39.5626C75.7053 39.3373 75.7051 39.3368 75.705 39.3362C75.705 39.336 75.7048 39.3354 75.7047 39.335C75.7045 39.3341 75.7043 39.3331 75.704 39.3319C75.7035 39.3296 75.7028 39.3267 75.702 39.3233C75.7003 39.3165 75.6981 39.3075 75.6954 39.2964C75.6899 39.2742 75.6821 39.2436 75.6719 39.2051C75.6515 39.1279 75.6212 39.0188 75.5796 38.8811C75.4964 38.6058 75.3678 38.2159 75.1816 37.7388C74.8096 36.7854 74.2061 35.4794 73.2734 34.0444C71.4049 31.1696 68.2131 27.776 62.937 25.6823L62.1993 27.5413C67.0176 29.4533 69.9072 32.5352 71.5965 35.1343C72.4427 36.4363 72.9872 37.6168 73.3185 38.4658C73.4839 38.8899 73.5958 39.2301 73.6651 39.4596C73.6998 39.5744 73.7238 39.6613 73.7386 39.7172C73.746 39.7451 73.7511 39.7652 73.754 39.7772C73.7555 39.7831 73.7565 39.787 73.7569 39.7888C73.7571 39.7897 73.7572 39.7901 73.7572 39.7899C73.7571 39.7899 73.7571 39.7896 73.757 39.7893C73.757 39.7891 73.7569 39.7888 73.7569 39.7887C73.7568 39.7883 73.7567 39.7878 74.731 39.5626ZM62.5681 26.6118C62.9252 25.6777 62.9255 25.6778 62.9258 25.6779C62.9258 25.6779 62.926 25.678 62.9261 25.6781C62.9263 25.6781 62.9264 25.6782 62.9263 25.6781C62.9261 25.6781 62.9254 25.6778 62.9242 25.6773C62.9218 25.6764 62.9173 25.6746 62.9107 25.672C62.8976 25.6668 62.8763 25.6583 62.8473 25.6464C62.7893 25.6226 62.7004 25.5852 62.5841 25.5339C62.3515 25.4311 62.0098 25.2724 61.5865 25.0539C60.7392 24.6163 59.5702 23.9415 58.2982 22.9985C55.7487 21.1086 52.8278 18.1743 51.2097 13.9544L49.3423 14.6705C51.1392 19.3566 54.3644 22.572 57.1072 24.6052C58.4813 25.6239 59.7451 26.354 60.6689 26.831C61.1313 27.0697 61.5097 27.2457 61.7759 27.3633C61.9091 27.4221 62.0142 27.4664 62.0879 27.4966C62.1247 27.5117 62.1537 27.5233 62.1744 27.5315C62.1847 27.5356 62.193 27.5389 62.1991 27.5412C62.2022 27.5424 62.2047 27.5434 62.2067 27.5442C62.2077 27.5446 62.2086 27.5449 62.2093 27.5452C62.2097 27.5453 62.2101 27.5455 62.2103 27.5456C62.2107 27.5457 62.2111 27.5459 62.5681 26.6118ZM50.276 14.3124C51.257 14.1183 51.2569 14.1181 51.2569 14.1178C51.2568 14.1177 51.2568 14.1174 51.2567 14.1172C51.2567 14.1168 51.2566 14.1164 51.2565 14.1159C51.2563 14.115 51.2561 14.1139 51.2558 14.1126C51.2553 14.1101 51.2547 14.107 51.2539 14.1033C51.2524 14.096 51.2504 14.0863 51.2478 14.0745C51.2427 14.0509 51.2356 14.0185 51.2262 13.979C51.2076 13.9002 51.1801 13.7911 51.1432 13.6637C51.0714 13.416 50.9552 13.0681 50.7846 12.7331C50.6295 12.4286 50.3547 11.9821 49.8955 11.7161C49.643 11.5699 49.3325 11.4777 48.9844 11.5046C48.6435 11.531 48.343 11.6654 48.091 11.8448L49.2505 13.4743C49.2786 13.4543 49.2384 13.491 49.1384 13.4987C49.0313 13.507 48.9425 13.4754 48.893 13.4468C48.8398 13.416 48.8963 13.4325 49.0025 13.6409C49.0931 13.8188 49.1681 14.0336 49.2222 14.2204C49.2483 14.3102 49.2674 14.3863 49.2797 14.4384C49.2858 14.4643 49.2901 14.4838 49.2927 14.4957C49.294 14.5016 49.2948 14.5056 49.2952 14.5075C49.2954 14.5084 49.2955 14.5088 49.2954 14.5087C49.2954 14.5086 49.2954 14.5084 49.2953 14.508C49.2953 14.5078 49.2952 14.5076 49.2952 14.5074C49.2951 14.5073 49.2951 14.507 49.2951 14.507C49.295 14.5068 49.295 14.5065 50.276 14.3124Z" fill="#1B100F" mask="url(#path-7-inside-4_27_676)"/>
<mask id="path-9-inside-5_27_676" fill="white">
<path d="M123.246 37.309C123.246 37.309 130.494 25.9383 121.472 11.834C121.472 11.834 112.839 -1.85567 99.2736 0.855383C99.2736 0.855383 96.0823 1.30349 97.2615 6.16547C97.2615 6.16547 99.2736 16.4832 109.378 21.1659C109.378 21.1659 118.27 25.1317 121.645 35.4046C121.645 35.4046 122.121 38.2277 123.246 37.3202"/>
</mask>
<path d="M121.472 11.834L120.626 12.3675L120.63 12.3729L121.472 11.834ZM99.2736 0.855383L99.4127 1.84567L99.4413 1.84165L99.4696 1.83599L99.2736 0.855383ZM97.2615 6.16547L98.243 5.97406L98.2386 5.95181L98.2333 5.92978L97.2615 6.16547ZM109.378 21.1659L108.957 22.0732L108.964 22.0763L108.97 22.0792L109.378 21.1659ZM121.645 35.4046L122.631 35.2383L122.619 35.164L122.595 35.0924L121.645 35.4046ZM123.246 37.309C124.09 37.8465 124.09 37.846 124.09 37.8455C124.09 37.8452 124.091 37.8447 124.091 37.8442C124.092 37.8432 124.092 37.8421 124.093 37.8407C124.095 37.8381 124.097 37.8348 124.1 37.8307C124.105 37.8227 124.111 37.8118 124.12 37.7982C124.136 37.771 124.159 37.7329 124.188 37.6839C124.245 37.5861 124.326 37.4453 124.422 37.2636C124.616 36.9003 124.878 36.3728 125.16 35.6981C125.725 34.3497 126.375 32.4069 126.732 30.0076C127.447 25.1918 126.971 18.5739 122.315 11.2952L120.63 12.3729C124.996 19.1984 125.406 25.318 124.753 29.7137C124.426 31.92 123.828 33.7015 123.315 34.9258C123.059 35.5375 122.825 36.0086 122.658 36.3222C122.574 36.479 122.507 36.5962 122.463 36.6718C122.441 36.7097 122.424 36.737 122.414 36.7537C122.409 36.7621 122.405 36.7678 122.404 36.7708C122.403 36.7722 122.402 36.773 122.402 36.7732C122.402 36.7732 122.402 36.7731 122.402 36.7729C122.402 36.7727 122.403 36.7724 122.403 36.7723C122.403 36.7719 122.403 36.7715 123.246 37.309ZM121.472 11.834C122.318 11.3006 122.318 11.3003 122.318 11.2998C122.317 11.2996 122.317 11.2991 122.317 11.2987C122.316 11.2978 122.316 11.2968 122.315 11.2955C122.313 11.293 122.311 11.2896 122.308 11.2854C122.303 11.277 122.296 11.2654 122.286 11.2507C122.267 11.2212 122.239 11.1791 122.203 11.1255C122.132 11.0182 122.027 10.8644 121.89 10.6714C121.615 10.2857 121.211 9.74265 120.683 9.10196C119.631 7.82256 118.079 6.14295 116.085 4.54724C112.102 1.36085 106.258 -1.56013 99.0776 -0.125227L99.4696 1.83599C105.855 0.559837 111.11 3.12819 114.835 6.1089C116.695 7.59674 118.149 9.17012 119.139 10.3728C119.633 10.9732 120.009 11.4785 120.26 11.8308C120.385 12.0069 120.479 12.1445 120.54 12.2365C120.571 12.2824 120.594 12.3169 120.608 12.3391C120.615 12.3501 120.62 12.3581 120.623 12.3629C120.625 12.3653 120.626 12.3668 120.626 12.3676C120.627 12.368 120.627 12.3682 120.627 12.3681C120.627 12.3681 120.627 12.368 120.627 12.368C120.626 12.3677 120.626 12.3675 121.472 11.834ZM99.2736 0.855383C99.1346 -0.134902 99.1338 -0.134795 99.133 -0.134686C99.1328 -0.134647 99.132 -0.134534 99.1314 -0.134455C99.1303 -0.134297 99.1292 -0.13413 99.128 -0.133954C99.1255 -0.1336 99.1229 -0.133209 99.1201 -0.132777C99.1145 -0.131914 99.108 -0.13089 99.1008 -0.129687C99.0863 -0.127282 99.0686 -0.124157 99.048 -0.120171C99.0069 -0.112207 98.9538 -0.100749 98.8908 -0.084627C98.7653 -0.0524908 98.5978 -0.00114977 98.406 0.0794561C98.0236 0.240135 97.5287 0.523916 97.0834 1.01672C96.148 2.05182 95.6473 3.75257 96.2897 6.40117L98.2333 5.92978C97.6965 3.7164 98.2018 2.7621 98.5673 2.35765C98.7724 2.13068 99.0017 1.99856 99.1808 1.92328C99.2697 1.88591 99.3424 1.86426 99.3868 1.85289C99.4088 1.84727 99.4231 1.84435 99.4281 1.84338C99.4306 1.84289 99.4307 1.84291 99.4282 1.84332C99.427 1.84353 99.4251 1.84383 99.4225 1.84423C99.4212 1.84443 99.4197 1.84465 99.4181 1.84489C99.4173 1.84501 99.4164 1.84513 99.4155 1.84526C99.4151 1.84533 99.4144 1.84543 99.4141 1.84546C99.4134 1.84556 99.4127 1.84567 99.2736 0.855383ZM97.2615 6.16547C96.28 6.35688 96.2801 6.35733 96.2802 6.35782C96.2802 6.35804 96.2803 6.35857 96.2804 6.359C96.2806 6.35987 96.2808 6.36089 96.281 6.36207C96.2815 6.36443 96.2821 6.36742 96.2828 6.37103C96.2842 6.37824 96.2862 6.38794 96.2888 6.40005C96.2938 6.42429 96.3011 6.45821 96.3108 6.50132C96.3301 6.58754 96.359 6.71059 96.3991 6.86655C96.4791 7.17836 96.6037 7.6223 96.785 8.16676C97.1473 9.25464 97.7383 10.75 98.6573 12.397C100.495 15.6905 103.663 19.6197 108.957 22.0732L109.798 20.2586C104.988 18.0294 102.098 14.4583 100.404 11.4224C99.5568 9.90457 99.0132 8.52783 98.6825 7.5348C98.5173 7.03881 98.4058 6.6401 98.3363 6.36937C98.3016 6.23405 98.2774 6.13086 98.2623 6.06366C98.2548 6.03006 98.2495 6.00547 98.2464 5.99037C98.2448 5.98282 98.2437 5.97765 98.2432 5.97491C98.2429 5.97354 98.2427 5.97278 98.2427 5.97264C98.2427 5.97256 98.2427 5.97265 98.2428 5.97288C98.2428 5.973 98.2428 5.9733 98.2428 5.97335C98.2429 5.97369 98.243 5.97406 97.2615 6.16547ZM109.378 21.1659C108.97 22.0792 108.97 22.0791 108.97 22.0789C108.97 22.0789 108.969 22.0788 108.969 22.0787C108.969 22.0786 108.969 22.0786 108.969 22.0786C108.969 22.0787 108.97 22.0789 108.971 22.0795C108.973 22.0805 108.978 22.0825 108.984 22.0855C108.997 22.0914 109.018 22.1013 109.047 22.115C109.104 22.1426 109.193 22.1859 109.309 22.2456C109.541 22.3649 109.882 22.5494 110.305 22.8034C111.151 23.3117 112.321 24.0961 113.594 25.191C116.14 27.3817 119.079 30.7967 120.695 35.7167L122.595 35.0924C120.837 29.7395 117.642 26.0353 114.898 23.6748C113.526 22.4941 112.261 21.645 111.335 21.0888C110.871 20.8105 110.491 20.6048 110.224 20.4672C110.09 20.3983 109.984 20.3464 109.91 20.3109C109.873 20.2931 109.843 20.2794 109.822 20.2697C109.812 20.2649 109.804 20.261 109.797 20.2582C109.794 20.2568 109.792 20.2556 109.79 20.2547C109.788 20.2542 109.788 20.2538 109.787 20.2535C109.786 20.2533 109.786 20.2531 109.786 20.253C109.785 20.2528 109.785 20.2526 109.378 21.1659ZM121.645 35.4046C120.659 35.5708 120.659 35.5711 120.659 35.5713C120.659 35.5714 120.659 35.5716 120.659 35.5718C120.659 35.5722 120.659 35.5726 120.66 35.5731C120.66 35.574 120.66 35.5751 120.66 35.5763C120.661 35.5789 120.661 35.5821 120.662 35.5859C120.663 35.5937 120.665 35.6041 120.667 35.6169C120.672 35.6425 120.679 35.6781 120.688 35.7218C120.705 35.8091 120.731 35.9305 120.767 36.0725C120.836 36.3497 120.946 36.7349 121.108 37.1041C121.252 37.4331 121.511 37.9278 121.962 38.2323C122.216 38.4041 122.548 38.5261 122.934 38.4953C123.309 38.4653 123.624 38.3001 123.874 38.0986L122.619 36.5419C122.587 36.5672 122.642 36.5123 122.775 36.5016C122.919 36.4901 123.03 36.5404 123.081 36.5751C123.126 36.6056 123.055 36.5646 122.94 36.3012C122.842 36.0781 122.763 35.8143 122.708 35.5905C122.681 35.482 122.661 35.39 122.648 35.3264C122.642 35.2947 122.637 35.2705 122.634 35.2552C122.633 35.2476 122.632 35.2422 122.632 35.2394C122.631 35.2379 122.631 35.2371 122.631 35.2369C122.631 35.2368 122.631 35.2369 122.631 35.2371C122.631 35.2372 122.631 35.2374 122.631 35.2376C122.631 35.2377 122.631 35.2379 122.631 35.2379C122.631 35.2381 122.631 35.2383 121.645 35.4046Z" fill="#1B100F" mask="url(#path-9-inside-5_27_676)"/>
<mask id="path-11-inside-6_27_676" fill="white">
<path d="M94.6815 12.6595C94.6815 12.6595 87.5282 22.5671 96.5884 34.7595C96.5884 34.7595 105.261 46.6019 118.749 44.1712C118.749 44.1712 121.927 43.7823 120.731 39.5626C120.731 39.5626 118.663 30.6176 108.568 26.6118C108.568 26.6118 99.6911 23.2185 96.276 14.3124C96.276 14.3124 95.7912 11.8623 94.6708 12.6595"/>
</mask>
<path d="M96.5884 34.7595L97.3952 34.1686L97.3911 34.163L96.5884 34.7595ZM118.749 44.1712L118.627 43.1786L118.599 43.182L118.571 43.187L118.749 44.1712ZM120.731 39.5626L119.757 39.7878L119.762 39.8117L119.769 39.8352L120.731 39.5626ZM108.568 26.6118L108.937 25.6822L108.925 25.6777L108.568 26.6118ZM96.276 14.3124L95.295 14.5065L95.3116 14.5905L95.3423 14.6705L96.276 14.3124ZM94.6815 12.6595C93.8708 12.0742 93.8704 12.0747 93.87 12.0752C93.8699 12.0754 93.8694 12.076 93.8691 12.0765C93.8684 12.0774 93.8677 12.0785 93.8668 12.0798C93.865 12.0822 93.8628 12.0853 93.8602 12.089C93.8549 12.0964 93.848 12.1062 93.8396 12.1185C93.8226 12.1429 93.7993 12.177 93.7705 12.2205C93.7127 12.3074 93.6325 12.4319 93.5357 12.5923C93.3423 12.9128 93.0818 13.3773 92.8013 13.9708C92.2409 15.1565 91.5964 16.8655 91.2506 18.9756C90.5543 23.2237 91.0824 29.0265 95.7858 35.3559L97.3911 34.163C93.0343 28.3 92.6089 23.0529 93.2242 19.2991C93.5342 17.4083 94.1118 15.8784 94.6095 14.8254C94.8581 14.2995 95.0857 13.8948 95.248 13.6258C95.3291 13.4915 95.3938 13.3913 95.4364 13.3271C95.4577 13.295 95.4735 13.272 95.483 13.2582C95.4878 13.2513 95.491 13.2467 95.4926 13.2445C95.4934 13.2434 95.4938 13.2429 95.4937 13.2429C95.4937 13.243 95.4936 13.2432 95.4933 13.2435C95.4932 13.2436 95.493 13.244 95.4929 13.2441C95.4926 13.2445 95.4923 13.2449 94.6815 12.6595ZM96.5884 34.7595C95.7816 35.3503 95.7819 35.3507 95.7822 35.3511C95.7823 35.3513 95.7827 35.3518 95.783 35.3522C95.7836 35.353 95.7843 35.354 95.7852 35.3551C95.7869 35.3575 95.7891 35.3605 95.7919 35.3642C95.7974 35.3717 95.8051 35.382 95.8149 35.395C95.8345 35.421 95.8625 35.4579 95.8989 35.5048C95.9716 35.5985 96.0777 35.7325 96.2163 35.9003C96.4933 36.2358 96.9007 36.7071 97.4309 37.2625C98.4901 38.3717 100.047 39.8243 102.043 41.2002C106.033 43.9506 111.839 46.4325 118.926 45.1553L118.571 43.187C112.171 44.3405 106.896 42.1166 103.178 39.5535C101.32 38.2726 99.8659 36.9165 98.8775 35.8813C98.3839 35.3644 98.0084 34.9295 97.7585 34.6269C97.6336 34.4756 97.5402 34.3575 97.4793 34.279C97.4488 34.2398 97.4265 34.2104 97.4125 34.1918C97.4054 34.1824 97.4005 34.1758 97.3976 34.1719C97.3962 34.1699 97.3952 34.1687 97.3948 34.1682C97.3946 34.1679 97.3946 34.1678 97.3946 34.1679C97.3947 34.1679 97.3948 34.1681 97.3948 34.1681C97.395 34.1684 97.3952 34.1687 96.5884 34.7595ZM118.749 44.1712C118.87 45.1638 118.871 45.1637 118.872 45.1636C118.872 45.1636 118.872 45.1635 118.873 45.1634C118.874 45.1633 118.875 45.1632 118.876 45.163C118.878 45.1628 118.881 45.1624 118.883 45.1621C118.888 45.1614 118.894 45.1606 118.901 45.1596C118.914 45.1577 118.931 45.1551 118.951 45.1518C118.989 45.1453 119.04 45.1357 119.101 45.1222C119.221 45.0953 119.384 45.0519 119.571 44.9833C119.941 44.8477 120.434 44.6033 120.884 44.1676C121.856 43.2258 122.365 41.6608 121.693 39.2899L119.769 39.8352C120.293 41.6841 119.81 42.4233 119.493 42.7309C119.297 42.9198 119.071 43.0365 118.882 43.1056C118.79 43.1394 118.714 43.1594 118.665 43.1702C118.641 43.1756 118.625 43.1785 118.618 43.1797C118.614 43.1803 118.613 43.1804 118.615 43.1802C118.615 43.1801 118.617 43.1799 118.619 43.1796C118.62 43.1795 118.621 43.1793 118.623 43.1792C118.623 43.1791 118.624 43.179 118.625 43.1789C118.625 43.1788 118.626 43.1788 118.626 43.1787C118.627 43.1787 118.627 43.1786 118.749 44.1712ZM120.731 39.5626C121.705 39.3373 121.705 39.3368 121.705 39.3362C121.705 39.336 121.705 39.3354 121.705 39.335C121.705 39.3341 121.704 39.3331 121.704 39.3319C121.703 39.3296 121.703 39.3267 121.702 39.3233C121.7 39.3165 121.698 39.3075 121.695 39.2964C121.69 39.2742 121.682 39.2436 121.672 39.2051C121.651 39.1279 121.621 39.0188 121.58 38.8811C121.496 38.6058 121.368 38.2159 121.182 37.7388C120.81 36.7854 120.206 35.4794 119.273 34.0444C117.405 31.1696 114.213 27.776 108.937 25.6823L108.199 27.5413C113.018 29.4533 115.907 32.5352 117.596 35.1343C118.443 36.4363 118.987 37.6168 119.318 38.4658C119.484 38.8899 119.596 39.2301 119.665 39.4596C119.7 39.5744 119.724 39.6613 119.739 39.7172C119.746 39.7451 119.751 39.7652 119.754 39.7772C119.756 39.7831 119.756 39.787 119.757 39.7888C119.757 39.7897 119.757 39.7901 119.757 39.7899C119.757 39.7899 119.757 39.7896 119.757 39.7893C119.757 39.7891 119.757 39.7888 119.757 39.7887C119.757 39.7883 119.757 39.7878 120.731 39.5626ZM108.568 26.6118C108.925 25.6777 108.925 25.6778 108.926 25.6779C108.926 25.6779 108.926 25.678 108.926 25.6781C108.926 25.6781 108.926 25.6782 108.926 25.6781C108.926 25.6781 108.925 25.6778 108.924 25.6773C108.922 25.6764 108.917 25.6746 108.911 25.672C108.898 25.6668 108.876 25.6583 108.847 25.6464C108.789 25.6226 108.7 25.5852 108.584 25.5339C108.352 25.4311 108.01 25.2724 107.587 25.0539C106.739 24.6163 105.57 23.9415 104.298 22.9985C101.749 21.1086 98.8278 18.1743 97.2097 13.9544L95.3423 14.6705C97.1392 19.3566 100.364 22.572 103.107 24.6052C104.481 25.6239 105.745 26.354 106.669 26.831C107.131 27.0697 107.51 27.2457 107.776 27.3633C107.909 27.4221 108.014 27.4664 108.088 27.4966C108.125 27.5117 108.154 27.5233 108.174 27.5315C108.185 27.5356 108.193 27.5389 108.199 27.5412C108.202 27.5424 108.205 27.5434 108.207 27.5442C108.208 27.5446 108.209 27.5449 108.209 27.5452C108.21 27.5453 108.21 27.5455 108.21 27.5456C108.211 27.5457 108.211 27.5459 108.568 26.6118ZM96.276 14.3124C97.257 14.1183 97.2569 14.1181 97.2569 14.1178C97.2568 14.1177 97.2568 14.1174 97.2567 14.1172C97.2567 14.1168 97.2566 14.1164 97.2565 14.1159C97.2563 14.115 97.2561 14.1139 97.2558 14.1126C97.2553 14.1101 97.2547 14.107 97.2539 14.1033C97.2524 14.096 97.2504 14.0863 97.2478 14.0745C97.2427 14.0509 97.2356 14.0185 97.2262 13.979C97.2076 13.9002 97.1801 13.7911 97.1432 13.6637C97.0714 13.416 96.9552 13.0681 96.7846 12.7331C96.6295 12.4286 96.3547 11.9821 95.8955 11.7161C95.643 11.5699 95.3325 11.4777 94.9844 11.5046C94.6435 11.531 94.343 11.6654 94.091 11.8448L95.2505 13.4743C95.2786 13.4543 95.2384 13.491 95.1384 13.4987C95.0313 13.507 94.9425 13.4754 94.893 13.4468C94.8398 13.416 94.8963 13.4325 95.0025 13.6409C95.0931 13.8188 95.1681 14.0336 95.2222 14.2204C95.2483 14.3102 95.2674 14.3863 95.2797 14.4384C95.2858 14.4643 95.2901 14.4838 95.2927 14.4957C95.294 14.5016 95.2948 14.5056 95.2952 14.5075C95.2954 14.5084 95.2955 14.5088 95.2954 14.5087C95.2954 14.5086 95.2954 14.5084 95.2953 14.508C95.2953 14.5078 95.2952 14.5076 95.2952 14.5074C95.2951 14.5073 95.2951 14.507 95.2951 14.507C95.295 14.5068 95.295 14.5065 96.276 14.3124Z" fill="#1B100F" mask="url(#path-11-inside-6_27_676)"/>
<mask id="path-13-inside-7_27_676" fill="white">
<path d="M169.246 37.309C169.246 37.309 176.494 25.9383 167.472 11.834C167.472 11.834 158.839 -1.85567 145.274 0.855383C145.274 0.855383 142.082 1.30349 143.261 6.16547C143.261 6.16547 145.274 16.4832 155.378 21.1659C155.378 21.1659 164.27 25.1317 167.645 35.4046C167.645 35.4046 168.121 38.2277 169.246 37.3202"/>
</mask>
<path d="M167.472 11.834L166.626 12.3675L166.63 12.3729L167.472 11.834ZM145.274 0.855383L145.413 1.84567L145.441 1.84165L145.47 1.83599L145.274 0.855383ZM143.261 6.16547L144.243 5.97406L144.239 5.95181L144.233 5.92978L143.261 6.16547ZM155.378 21.1659L154.957 22.0732L154.964 22.0763L154.97 22.0792L155.378 21.1659ZM167.645 35.4046L168.631 35.2383L168.619 35.164L168.595 35.0924L167.645 35.4046ZM169.246 37.309C170.09 37.8465 170.09 37.846 170.09 37.8455C170.09 37.8452 170.091 37.8447 170.091 37.8442C170.092 37.8432 170.092 37.8421 170.093 37.8407C170.095 37.8381 170.097 37.8348 170.1 37.8307C170.105 37.8227 170.111 37.8118 170.12 37.7982C170.136 37.771 170.159 37.7329 170.188 37.6839C170.245 37.5861 170.326 37.4453 170.422 37.2636C170.616 36.9003 170.878 36.3728 171.16 35.6981C171.725 34.3497 172.375 32.4069 172.732 30.0076C173.447 25.1918 172.971 18.5739 168.315 11.2952L166.63 12.3729C170.996 19.1984 171.406 25.318 170.753 29.7137C170.426 31.92 169.828 33.7015 169.315 34.9258C169.059 35.5375 168.825 36.0086 168.658 36.3222C168.574 36.479 168.507 36.5962 168.463 36.6718C168.441 36.7097 168.424 36.737 168.414 36.7537C168.409 36.7621 168.405 36.7678 168.404 36.7708C168.403 36.7722 168.402 36.773 168.402 36.7732C168.402 36.7732 168.402 36.7731 168.402 36.7729C168.402 36.7727 168.403 36.7724 168.403 36.7723C168.403 36.7719 168.403 36.7715 169.246 37.309ZM167.472 11.834C168.318 11.3006 168.318 11.3003 168.318 11.2998C168.317 11.2996 168.317 11.2991 168.317 11.2987C168.316 11.2978 168.316 11.2968 168.315 11.2955C168.313 11.293 168.311 11.2896 168.308 11.2854C168.303 11.277 168.296 11.2654 168.286 11.2507C168.267 11.2212 168.239 11.1791 168.203 11.1255C168.132 11.0182 168.027 10.8644 167.89 10.6714C167.615 10.2857 167.211 9.74265 166.683 9.10196C165.631 7.82256 164.079 6.14295 162.085 4.54724C158.102 1.36085 152.258 -1.56013 145.078 -0.125227L145.47 1.83599C151.855 0.559837 157.11 3.12819 160.835 6.1089C162.695 7.59674 164.149 9.17012 165.139 10.3728C165.633 10.9732 166.009 11.4785 166.26 11.8308C166.385 12.0069 166.479 12.1445 166.54 12.2365C166.571 12.2824 166.594 12.3169 166.608 12.3391C166.615 12.3501 166.62 12.3581 166.623 12.3629C166.625 12.3653 166.626 12.3668 166.626 12.3676C166.627 12.368 166.627 12.3682 166.627 12.3681C166.627 12.3681 166.627 12.368 166.627 12.368C166.626 12.3677 166.626 12.3675 167.472 11.834ZM145.274 0.855383C145.135 -0.134902 145.134 -0.134795 145.133 -0.134686C145.133 -0.134647 145.132 -0.134534 145.131 -0.134455C145.13 -0.134297 145.129 -0.13413 145.128 -0.133954C145.126 -0.1336 145.123 -0.133209 145.12 -0.132777C145.114 -0.131914 145.108 -0.13089 145.101 -0.129687C145.086 -0.127282 145.069 -0.124157 145.048 -0.120171C145.007 -0.112207 144.954 -0.100749 144.891 -0.084627C144.765 -0.0524908 144.598 -0.00114977 144.406 0.0794561C144.024 0.240135 143.529 0.523916 143.083 1.01672C142.148 2.05182 141.647 3.75257 142.29 6.40117L144.233 5.92978C143.696 3.7164 144.202 2.7621 144.567 2.35765C144.772 2.13068 145.002 1.99856 145.181 1.92328C145.27 1.88591 145.342 1.86426 145.387 1.85289C145.409 1.84727 145.423 1.84435 145.428 1.84338C145.431 1.84289 145.431 1.84291 145.428 1.84332C145.427 1.84353 145.425 1.84383 145.423 1.84423C145.421 1.84443 145.42 1.84465 145.418 1.84489C145.417 1.84501 145.416 1.84513 145.416 1.84526C145.415 1.84533 145.414 1.84543 145.414 1.84546C145.413 1.84556 145.413 1.84567 145.274 0.855383ZM143.261 6.16547C142.28 6.35688 142.28 6.35733 142.28 6.35782C142.28 6.35804 142.28 6.35857 142.28 6.359C142.281 6.35987 142.281 6.36089 142.281 6.36207C142.281 6.36443 142.282 6.36742 142.283 6.37103C142.284 6.37824 142.286 6.38794 142.289 6.40005C142.294 6.42429 142.301 6.45821 142.311 6.50132C142.33 6.58754 142.359 6.71059 142.399 6.86655C142.479 7.17836 142.604 7.6223 142.785 8.16676C143.147 9.25464 143.738 10.75 144.657 12.397C146.495 15.6905 149.663 19.6197 154.957 22.0732L155.798 20.2586C150.988 18.0294 148.098 14.4583 146.404 11.4224C145.557 9.90457 145.013 8.52783 144.683 7.5348C144.517 7.03881 144.406 6.6401 144.336 6.36937C144.302 6.23405 144.277 6.13086 144.262 6.06366C144.255 6.03006 144.25 6.00547 144.246 5.99037C144.245 5.98282 144.244 5.97765 144.243 5.97491C144.243 5.97354 144.243 5.97278 144.243 5.97264C144.243 5.97256 144.243 5.97265 144.243 5.97288C144.243 5.973 144.243 5.9733 144.243 5.97335C144.243 5.97369 144.243 5.97406 143.261 6.16547ZM155.378 21.1659C154.97 22.0792 154.97 22.0791 154.97 22.0789C154.97 22.0789 154.969 22.0788 154.969 22.0787C154.969 22.0786 154.969 22.0786 154.969 22.0786C154.969 22.0787 154.97 22.0789 154.971 22.0795C154.973 22.0805 154.978 22.0825 154.984 22.0855C154.997 22.0914 155.018 22.1013 155.047 22.115C155.104 22.1426 155.193 22.1859 155.309 22.2456C155.541 22.3649 155.882 22.5494 156.305 22.8034C157.151 23.3117 158.321 24.0961 159.594 25.191C162.14 27.3817 165.079 30.7967 166.695 35.7167L168.595 35.0924C166.837 29.7395 163.642 26.0353 160.898 23.6748C159.526 22.4941 158.261 21.645 157.335 21.0888C156.871 20.8105 156.491 20.6048 156.224 20.4672C156.09 20.3983 155.984 20.3464 155.91 20.3109C155.873 20.2931 155.843 20.2794 155.822 20.2697C155.812 20.2649 155.804 20.261 155.797 20.2582C155.794 20.2568 155.792 20.2556 155.79 20.2547C155.788 20.2542 155.788 20.2538 155.787 20.2535C155.786 20.2533 155.786 20.2531 155.786 20.253C155.785 20.2528 155.785 20.2526 155.378 21.1659ZM167.645 35.4046C166.659 35.5708 166.659 35.5711 166.659 35.5713C166.659 35.5714 166.659 35.5716 166.659 35.5718C166.659 35.5722 166.659 35.5726 166.66 35.5731C166.66 35.574 166.66 35.5751 166.66 35.5763C166.661 35.5789 166.661 35.5821 166.662 35.5859C166.663 35.5937 166.665 35.6041 166.667 35.6169C166.672 35.6425 166.679 35.6781 166.688 35.7218C166.705 35.8091 166.731 35.9305 166.767 36.0725C166.836 36.3497 166.946 36.7349 167.108 37.1041C167.252 37.4331 167.511 37.9278 167.962 38.2323C168.216 38.4041 168.548 38.5261 168.934 38.4953C169.309 38.4653 169.624 38.3001 169.874 38.0986L168.619 36.5419C168.587 36.5672 168.642 36.5123 168.775 36.5016C168.919 36.4901 169.03 36.5404 169.081 36.5751C169.126 36.6056 169.055 36.5646 168.94 36.3012C168.842 36.0781 168.763 35.8143 168.708 35.5905C168.681 35.482 168.661 35.39 168.648 35.3264C168.642 35.2947 168.637 35.2705 168.634 35.2552C168.633 35.2476 168.632 35.2422 168.632 35.2394C168.631 35.2379 168.631 35.2371 168.631 35.2369C168.631 35.2368 168.631 35.2369 168.631 35.2371C168.631 35.2372 168.631 35.2374 168.631 35.2376C168.631 35.2377 168.631 35.2379 168.631 35.2379C168.631 35.2381 168.631 35.2383 167.645 35.4046Z" fill="#1B100F" mask="url(#path-13-inside-7_27_676)"/>
<mask id="path-15-inside-8_27_676" fill="white">
<path d="M140.682 12.6595C140.682 12.6595 133.528 22.5671 142.588 34.7595C142.588 34.7595 151.261 46.6019 164.749 44.1712C164.749 44.1712 167.927 43.7823 166.731 39.5626C166.731 39.5626 164.663 30.6176 154.568 26.6118C154.568 26.6118 145.691 23.2185 142.276 14.3124C142.276 14.3124 141.791 11.8623 140.671 12.6595"/>
</mask>
<path d="M142.588 34.7595L143.395 34.1686L143.391 34.163L142.588 34.7595ZM164.749 44.1712L164.627 43.1786L164.599 43.182L164.571 43.187L164.749 44.1712ZM166.731 39.5626L165.757 39.7878L165.762 39.8117L165.769 39.8352L166.731 39.5626ZM154.568 26.6118L154.937 25.6822L154.925 25.6777L154.568 26.6118ZM142.276 14.3124L141.295 14.5065L141.312 14.5905L141.342 14.6705L142.276 14.3124ZM140.682 12.6595C139.871 12.0742 139.87 12.0747 139.87 12.0752C139.87 12.0754 139.869 12.076 139.869 12.0765C139.868 12.0774 139.868 12.0785 139.867 12.0798C139.865 12.0822 139.863 12.0853 139.86 12.089C139.855 12.0964 139.848 12.1062 139.84 12.1185C139.823 12.1429 139.799 12.177 139.77 12.2205C139.713 12.3074 139.633 12.4319 139.536 12.5923C139.342 12.9128 139.082 13.3773 138.801 13.9708C138.241 15.1565 137.596 16.8655 137.251 18.9756C136.554 23.2237 137.082 29.0265 141.786 35.3559L143.391 34.163C139.034 28.3 138.609 23.0529 139.224 19.2991C139.534 17.4083 140.112 15.8784 140.609 14.8254C140.858 14.2995 141.086 13.8948 141.248 13.6258C141.329 13.4915 141.394 13.3913 141.436 13.3271C141.458 13.295 141.473 13.272 141.483 13.2582C141.488 13.2513 141.491 13.2467 141.493 13.2445C141.493 13.2434 141.494 13.2429 141.494 13.2429C141.494 13.243 141.494 13.2432 141.493 13.2435C141.493 13.2436 141.493 13.244 141.493 13.2441C141.493 13.2445 141.492 13.2449 140.682 12.6595ZM142.588 34.7595C141.782 35.3503 141.782 35.3507 141.782 35.3511C141.782 35.3513 141.783 35.3518 141.783 35.3522C141.784 35.353 141.784 35.354 141.785 35.3551C141.787 35.3575 141.789 35.3605 141.792 35.3642C141.797 35.3717 141.805 35.382 141.815 35.395C141.835 35.421 141.863 35.4579 141.899 35.5048C141.972 35.5985 142.078 35.7325 142.216 35.9003C142.493 36.2358 142.901 36.7071 143.431 37.2625C144.49 38.3717 146.047 39.8243 148.043 41.2002C152.033 43.9506 157.839 46.4325 164.926 45.1553L164.571 43.187C158.171 44.3405 152.896 42.1166 149.178 39.5535C147.32 38.2726 145.866 36.9165 144.877 35.8813C144.384 35.3644 144.008 34.9295 143.758 34.6269C143.634 34.4756 143.54 34.3575 143.479 34.279C143.449 34.2398 143.427 34.2104 143.412 34.1918C143.405 34.1824 143.4 34.1758 143.398 34.1719C143.396 34.1699 143.395 34.1687 143.395 34.1682C143.395 34.1679 143.395 34.1678 143.395 34.1679C143.395 34.1679 143.395 34.1681 143.395 34.1681C143.395 34.1684 143.395 34.1687 142.588 34.7595ZM164.749 44.1712C164.87 45.1638 164.871 45.1637 164.872 45.1636C164.872 45.1636 164.872 45.1635 164.873 45.1634C164.874 45.1633 164.875 45.1632 164.876 45.163C164.878 45.1628 164.881 45.1624 164.883 45.1621C164.888 45.1614 164.894 45.1606 164.901 45.1596C164.914 45.1577 164.931 45.1551 164.951 45.1518C164.989 45.1453 165.04 45.1357 165.101 45.1222C165.221 45.0953 165.384 45.0519 165.571 44.9833C165.941 44.8477 166.434 44.6033 166.884 44.1676C167.856 43.2258 168.365 41.6608 167.693 39.2899L165.769 39.8352C166.293 41.6841 165.81 42.4233 165.493 42.7309C165.297 42.9198 165.071 43.0365 164.882 43.1056C164.79 43.1394 164.714 43.1594 164.665 43.1702C164.641 43.1756 164.625 43.1785 164.618 43.1797C164.614 43.1803 164.613 43.1804 164.615 43.1802C164.615 43.1801 164.617 43.1799 164.619 43.1796C164.62 43.1795 164.621 43.1793 164.623 43.1792C164.623 43.1791 164.624 43.179 164.625 43.1789C164.625 43.1788 164.626 43.1788 164.626 43.1787C164.627 43.1787 164.627 43.1786 164.749 44.1712ZM166.731 39.5626C167.705 39.3373 167.705 39.3368 167.705 39.3362C167.705 39.336 167.705 39.3354 167.705 39.335C167.705 39.3341 167.704 39.3331 167.704 39.3319C167.703 39.3296 167.703 39.3267 167.702 39.3233C167.7 39.3165 167.698 39.3075 167.695 39.2964C167.69 39.2742 167.682 39.2436 167.672 39.2051C167.651 39.1279 167.621 39.0188 167.58 38.8811C167.496 38.6058 167.368 38.2159 167.182 37.7388C166.81 36.7854 166.206 35.4794 165.273 34.0444C163.405 31.1696 160.213 27.776 154.937 25.6823L154.199 27.5413C159.018 29.4533 161.907 32.5352 163.596 35.1343C164.443 36.4363 164.987 37.6168 165.318 38.4658C165.484 38.8899 165.596 39.2301 165.665 39.4596C165.7 39.5744 165.724 39.6613 165.739 39.7172C165.746 39.7451 165.751 39.7652 165.754 39.7772C165.756 39.7831 165.756 39.787 165.757 39.7888C165.757 39.7897 165.757 39.7901 165.757 39.7899C165.757 39.7899 165.757 39.7896 165.757 39.7893C165.757 39.7891 165.757 39.7888 165.757 39.7887C165.757 39.7883 165.757 39.7878 166.731 39.5626ZM154.568 26.6118C154.925 25.6777 154.925 25.6778 154.926 25.6779C154.926 25.6779 154.926 25.678 154.926 25.6781C154.926 25.6781 154.926 25.6782 154.926 25.6781C154.926 25.6781 154.925 25.6778 154.924 25.6773C154.922 25.6764 154.917 25.6746 154.911 25.672C154.898 25.6668 154.876 25.6583 154.847 25.6464C154.789 25.6226 154.7 25.5852 154.584 25.5339C154.352 25.4311 154.01 25.2724 153.587 25.0539C152.739 24.6163 151.57 23.9415 150.298 22.9985C147.749 21.1086 144.828 18.1743 143.21 13.9544L141.342 14.6705C143.139 19.3566 146.364 22.572 149.107 24.6052C150.481 25.6239 151.745 26.354 152.669 26.831C153.131 27.0697 153.51 27.2457 153.776 27.3633C153.909 27.4221 154.014 27.4664 154.088 27.4966C154.125 27.5117 154.154 27.5233 154.174 27.5315C154.185 27.5356 154.193 27.5389 154.199 27.5412C154.202 27.5424 154.205 27.5434 154.207 27.5442C154.208 27.5446 154.209 27.5449 154.209 27.5452C154.21 27.5453 154.21 27.5455 154.21 27.5456C154.211 27.5457 154.211 27.5459 154.568 26.6118ZM142.276 14.3124C143.257 14.1183 143.257 14.1181 143.257 14.1178C143.257 14.1177 143.257 14.1174 143.257 14.1172C143.257 14.1168 143.257 14.1164 143.256 14.1159C143.256 14.115 143.256 14.1139 143.256 14.1126C143.255 14.1101 143.255 14.107 143.254 14.1033C143.252 14.096 143.25 14.0863 143.248 14.0745C143.243 14.0509 143.236 14.0185 143.226 13.979C143.208 13.9002 143.18 13.7911 143.143 13.6637C143.071 13.416 142.955 13.0681 142.785 12.7331C142.629 12.4286 142.355 11.9821 141.895 11.7161C141.643 11.5699 141.333 11.4777 140.984 11.5046C140.643 11.531 140.343 11.6654 140.091 11.8448L141.251 13.4743C141.279 13.4543 141.238 13.491 141.138 13.4987C141.031 13.507 140.942 13.4754 140.893 13.4468C140.84 13.416 140.896 13.4325 141.002 13.6409C141.093 13.8188 141.168 14.0336 141.222 14.2204C141.248 14.3102 141.267 14.3863 141.28 14.4384C141.286 14.4643 141.29 14.4838 141.293 14.4957C141.294 14.5016 141.295 14.5056 141.295 14.5075C141.295 14.5084 141.295 14.5088 141.295 14.5087C141.295 14.5086 141.295 14.5084 141.295 14.508C141.295 14.5078 141.295 14.5076 141.295 14.5074C141.295 14.5073 141.295 14.507 141.295 14.507C141.295 14.5068 141.295 14.5065 142.276 14.3124Z" fill="#1B100F" mask="url(#path-15-inside-8_27_676)"/>
</svg>
