<svg width="34" height="45" viewBox="0 0 34 45" fill="none" xmlns="http://www.w3.org/2000/svg">
<mask id="path-1-inside-1_27_656" fill="white">
<path d="M31.2463 37.309C31.2463 37.309 38.4944 25.9383 29.4722 11.834C29.4722 11.834 20.8394 -1.85567 7.27361 0.855383C7.27361 0.855383 4.08231 1.30349 5.26148 6.16547C5.26148 6.16547 7.27361 16.4832 17.3776 21.1659C17.3776 21.1659 26.27 25.1317 29.6453 35.4046C29.6453 35.4046 30.1213 38.2277 31.2463 37.3202"/>
</mask>
<path d="M29.4722 11.834L28.6263 12.3675L28.6298 12.3729L29.4722 11.834ZM7.27361 0.855383L7.41266 1.84567L7.44126 1.84165L7.46958 1.83599L7.27361 0.855383ZM5.26148 6.16547L6.24299 5.97406L6.23865 5.95181L6.2333 5.92978L5.26148 6.16547ZM17.3776 21.1659L16.9571 22.0732L16.9637 22.0763L16.9703 22.0792L17.3776 21.1659ZM29.6453 35.4046L30.6313 35.2383L30.6188 35.164L30.5953 35.0924L29.6453 35.4046ZM31.2463 37.309C32.0896 37.8465 32.0899 37.846 32.0903 37.8455C32.0904 37.8452 32.0908 37.8447 32.0911 37.8442C32.0917 37.8432 32.0924 37.8421 32.0933 37.8407C32.0949 37.8381 32.097 37.8348 32.0996 37.8307C32.1046 37.8227 32.1113 37.8118 32.1197 37.7982C32.1363 37.771 32.1593 37.7329 32.188 37.6839C32.2454 37.5861 32.3255 37.4453 32.4224 37.2636C32.6163 36.9003 32.8779 36.3728 33.1603 35.6981C33.7248 34.3497 34.3753 32.4069 34.7317 30.0076C35.4472 25.1918 34.9707 18.5739 30.3146 11.2952L28.6298 12.3729C32.9959 19.1984 33.4065 25.318 32.7534 29.7137C32.4257 31.92 31.828 33.7015 31.3154 34.9258C31.0594 35.5375 30.8252 36.0086 30.6579 36.3222C30.5742 36.479 30.5074 36.5962 30.463 36.6718C30.4408 36.7097 30.4243 36.737 30.4141 36.7537C30.4089 36.7621 30.4054 36.7678 30.4035 36.7708C30.4026 36.7722 30.4021 36.773 30.402 36.7732C30.402 36.7732 30.4021 36.7731 30.4022 36.7729C30.4023 36.7727 30.4025 36.7724 30.4026 36.7723C30.4028 36.7719 30.4031 36.7715 31.2463 37.309ZM29.4722 11.834C30.318 11.3006 30.3178 11.3003 30.3175 11.2998C30.3174 11.2996 30.3171 11.2991 30.3168 11.2987C30.3163 11.2978 30.3156 11.2968 30.3148 11.2955C30.3132 11.293 30.311 11.2896 30.3083 11.2854C30.303 11.277 30.2955 11.2654 30.2859 11.2507C30.2668 11.2212 30.2393 11.1791 30.2034 11.1255C30.1317 11.0182 30.0268 10.8644 29.8896 10.6714C29.6151 10.2857 29.2107 9.74265 28.6835 9.10196C27.6306 7.82256 26.0792 6.14295 24.0848 4.54724C20.1024 1.36085 14.2577 -1.56013 7.07764 -0.125227L7.46958 1.83599C13.8553 0.559837 19.1099 3.12819 22.8353 6.1089C24.6949 7.59674 26.1494 9.17012 27.1392 10.3728C27.6332 10.9732 28.0093 11.4785 28.2599 11.8308C28.3852 12.0069 28.479 12.1445 28.5404 12.2365C28.5711 12.2824 28.5937 12.3169 28.608 12.3391C28.6152 12.3501 28.6203 12.3581 28.6234 12.3629C28.6249 12.3653 28.6259 12.3668 28.6264 12.3676C28.6266 12.368 28.6268 12.3682 28.6267 12.3681C28.6267 12.3681 28.6266 12.368 28.6266 12.368C28.6265 12.3677 28.6263 12.3675 29.4722 11.834ZM7.27361 0.855383C7.13456 -0.134902 7.1338 -0.134795 7.13303 -0.134686C7.13275 -0.134647 7.13196 -0.134534 7.13141 -0.134455C7.13031 -0.134297 7.12916 -0.13413 7.12796 -0.133954C7.12555 -0.1336 7.12293 -0.133209 7.12011 -0.132777C7.11446 -0.131914 7.108 -0.13089 7.10076 -0.129687C7.08627 -0.127282 7.0686 -0.124157 7.04801 -0.120171C7.00687 -0.112207 6.95377 -0.100749 6.89079 -0.084627C6.76526 -0.0524908 6.59782 -0.00114977 6.406 0.0794561C6.02362 0.240135 5.52874 0.523916 5.08341 1.01672C4.14804 2.05182 3.64729 3.75257 4.28965 6.40117L6.2333 5.92978C5.6965 3.7164 6.20182 2.7621 6.5673 2.35765C6.7724 2.13068 7.00165 1.99856 7.18079 1.92328C7.26973 1.88591 7.3424 1.86426 7.38679 1.85289C7.40877 1.84727 7.42308 1.84435 7.42812 1.84338C7.43061 1.84289 7.43072 1.84291 7.42823 1.84332C7.42699 1.84353 7.42508 1.84383 7.4225 1.84423C7.42121 1.84443 7.41975 1.84465 7.41811 1.84489C7.41729 1.84501 7.41643 1.84513 7.41552 1.84526C7.41507 1.84533 7.41435 1.84543 7.41412 1.84546C7.4134 1.84556 7.41266 1.84567 7.27361 0.855383ZM5.26148 6.16547C4.27997 6.35688 4.28006 6.35733 4.28015 6.35782C4.28019 6.35804 4.2803 6.35857 4.28038 6.359C4.28055 6.35987 4.28076 6.36089 4.28099 6.36207C4.28146 6.36443 4.28206 6.36742 4.28278 6.37103C4.28424 6.37824 4.28623 6.38794 4.28876 6.40005C4.29383 6.42429 4.30111 6.45821 4.31078 6.50132C4.33011 6.58754 4.35904 6.71059 4.39906 6.86655C4.47909 7.17836 4.60366 7.6223 4.78498 8.16676C5.14729 9.25464 5.73825 10.75 6.65731 12.397C8.49522 15.6905 11.6631 19.6197 16.9571 22.0732L17.7981 20.2586C12.9881 18.0294 10.0979 14.4583 8.40378 11.4224C7.55681 9.90457 7.01323 8.52783 6.68252 7.5348C6.51733 7.03881 6.40576 6.6401 6.33628 6.36937C6.30155 6.23405 6.27738 6.13086 6.2623 6.06366C6.25477 6.03006 6.24951 6.00547 6.24635 5.99037C6.24477 5.98282 6.24372 5.97765 6.24316 5.97491C6.24289 5.97354 6.24274 5.97278 6.24271 5.97264C6.24269 5.97256 6.24271 5.97265 6.24276 5.97288C6.24278 5.973 6.24284 5.9733 6.24285 5.97335C6.24291 5.97369 6.24299 5.97406 5.26148 6.16547ZM17.3776 21.1659C16.9703 22.0792 16.97 22.0791 16.9697 22.0789C16.9696 22.0789 16.9694 22.0788 16.9693 22.0787C16.969 22.0786 16.969 22.0786 16.969 22.0786C16.9691 22.0787 16.9697 22.0789 16.9709 22.0795C16.9732 22.0805 16.9776 22.0825 16.984 22.0855C16.9969 22.0914 17.018 22.1013 17.0467 22.115C17.1043 22.1426 17.1929 22.1859 17.3088 22.2456C17.5407 22.3649 17.8821 22.5494 18.305 22.8034C19.1515 23.3117 20.321 24.0961 21.5936 25.191C24.1399 27.3817 27.0787 30.7967 28.6952 35.7167L30.5953 35.0924C28.8366 29.7395 25.6416 26.0353 22.8979 23.6748C21.5255 22.4941 20.2609 21.645 19.3346 21.0888C18.8712 20.8105 18.4914 20.6048 18.2238 20.4672C18.09 20.3983 17.9842 20.3464 17.9099 20.3109C17.8727 20.2931 17.8435 20.2794 17.8225 20.2697C17.812 20.2649 17.8036 20.261 17.7973 20.2582C17.7942 20.2568 17.7916 20.2556 17.7895 20.2547C17.7885 20.2542 17.7876 20.2538 17.7868 20.2535C17.7864 20.2533 17.786 20.2531 17.7858 20.253C17.7853 20.2528 17.7849 20.2526 17.3776 21.1659ZM29.6453 35.4046C28.6592 35.5708 28.6592 35.5711 28.6593 35.5713C28.6593 35.5714 28.6593 35.5716 28.6593 35.5718C28.6594 35.5722 28.6595 35.5726 28.6596 35.5731C28.6597 35.574 28.6599 35.5751 28.6601 35.5763C28.6605 35.5789 28.6611 35.5821 28.6618 35.5859C28.6631 35.5937 28.665 35.6041 28.6674 35.6169C28.6721 35.6425 28.6788 35.6781 28.6877 35.7218C28.7053 35.8091 28.7314 35.9305 28.7667 36.0725C28.8355 36.3497 28.9462 36.7349 29.108 37.1041C29.2522 37.4331 29.511 37.9278 29.9617 38.2323C30.2159 38.4041 30.5485 38.5261 30.9342 38.4953C31.3085 38.4653 31.6243 38.3001 31.8741 38.0986L30.6185 36.5419C30.5871 36.5672 30.6419 36.5123 30.7748 36.5016C30.9192 36.4901 31.03 36.5404 31.0814 36.5751C31.1264 36.6056 31.0552 36.5646 30.9398 36.3012C30.842 36.0781 30.7633 35.8143 30.7077 35.5905C30.6808 35.482 30.661 35.39 30.6482 35.3264C30.6418 35.2947 30.6372 35.2705 30.6344 35.2552C30.633 35.2476 30.632 35.2422 30.6315 35.2394C30.6313 35.2379 30.6311 35.2371 30.6311 35.2369C30.6311 35.2368 30.6311 35.2369 30.6311 35.2371C30.6312 35.2372 30.6312 35.2374 30.6312 35.2376C30.6312 35.2377 30.6313 35.2379 30.6313 35.2379C30.6313 35.2381 30.6313 35.2383 29.6453 35.4046Z" fill="#1B100F" mask="url(#path-1-inside-1_27_656)"/>
<mask id="path-3-inside-2_27_656" fill="white">
<path d="M2.68154 12.6595C2.68154 12.6595 -4.47179 22.5671 4.58841 34.7595C4.58841 34.7595 13.2608 46.6019 26.7487 44.1712C26.7487 44.1712 29.9268 43.7823 28.731 39.5626C28.731 39.5626 26.6625 30.6176 16.5681 26.6118C16.5681 26.6118 7.69106 23.2185 4.27598 14.3124C4.27598 14.3124 3.79116 11.8623 2.67076 12.6595"/>
</mask>
<path d="M4.58841 34.7595L5.39522 34.1686L5.39106 34.163L4.58841 34.7595ZM26.7487 44.1712L26.6272 43.1786L26.5992 43.182L26.5714 43.187L26.7487 44.1712ZM28.731 39.5626L27.7567 39.7878L27.7622 39.8117L27.7689 39.8352L28.731 39.5626ZM16.5681 26.6118L16.937 25.6822L16.9252 25.6777L16.5681 26.6118ZM4.27598 14.3124L3.295 14.5065L3.31162 14.5905L3.34227 14.6705L4.27598 14.3124ZM2.68154 12.6595C1.87078 12.0742 1.87042 12.0747 1.87002 12.0752C1.86985 12.0754 1.86943 12.076 1.8691 12.0765C1.86843 12.0774 1.86765 12.0785 1.86676 12.0798C1.86499 12.0822 1.86279 12.0853 1.86018 12.089C1.85494 12.0964 1.84804 12.1062 1.83956 12.1185C1.8226 12.1429 1.79933 12.177 1.77045 12.2205C1.71271 12.3074 1.63254 12.4319 1.53575 12.5923C1.34226 12.9128 1.0818 13.3773 0.801302 13.9708C0.240884 15.1565 -0.403558 16.8655 -0.749431 18.9756C-1.44575 23.2237 -0.917641 29.0265 3.78576 35.3559L5.39106 34.163C1.03426 28.3 0.608929 23.0529 1.22423 19.2991C1.53417 17.4083 2.1118 15.8784 2.6095 14.8254C2.85806 14.2995 3.08567 13.8948 3.24799 13.6258C3.3291 13.4915 3.39376 13.3913 3.43639 13.3271C3.45769 13.295 3.47348 13.272 3.48303 13.2582C3.48781 13.2513 3.49103 13.2467 3.49261 13.2445C3.4934 13.2434 3.49377 13.2429 3.49372 13.2429C3.4937 13.243 3.49357 13.2432 3.49334 13.2435C3.49322 13.2436 3.49296 13.244 3.4929 13.2441C3.49262 13.2445 3.4923 13.2449 2.68154 12.6595ZM4.58841 34.7595C3.78161 35.3503 3.78189 35.3507 3.7822 35.3511C3.78234 35.3513 3.78269 35.3518 3.78298 35.3522C3.78357 35.353 3.78429 35.354 3.78515 35.3551C3.78686 35.3575 3.78911 35.3605 3.79189 35.3642C3.79744 35.3717 3.80512 35.382 3.81492 35.395C3.8345 35.421 3.86254 35.4579 3.8989 35.5048C3.97163 35.5985 4.07774 35.7325 4.21631 35.9003C4.49335 36.2358 4.9007 36.7071 5.43095 37.2625C6.49009 38.3717 8.0471 39.8243 10.043 41.2002C14.033 43.9506 19.8389 46.4325 26.9261 45.1553L26.5714 43.187C20.1705 44.3405 14.8963 42.1166 11.1781 39.5535C9.31997 38.2726 7.86589 36.9165 6.87747 35.8813C6.38394 35.3644 6.00839 34.9295 5.75847 34.6269C5.63356 34.4756 5.54018 34.3575 5.47929 34.279C5.44884 34.2398 5.42653 34.2104 5.41248 34.1918C5.40545 34.1824 5.40049 34.1758 5.3976 34.1719C5.39616 34.1699 5.39524 34.1687 5.39484 34.1682C5.39464 34.1679 5.39457 34.1678 5.39463 34.1679C5.39466 34.1679 5.3948 34.1681 5.39482 34.1681C5.395 34.1684 5.39521 34.1687 4.58841 34.7595ZM26.7487 44.1712C26.8702 45.1638 26.8708 45.1637 26.8715 45.1636C26.8718 45.1636 26.8725 45.1635 26.873 45.1634C26.8739 45.1633 26.875 45.1632 26.8761 45.163C26.8782 45.1628 26.8806 45.1624 26.8832 45.1621C26.8883 45.1614 26.8942 45.1606 26.901 45.1596C26.9144 45.1577 26.931 45.1551 26.9505 45.1518C26.9894 45.1453 27.0402 45.1357 27.1008 45.1222C27.2214 45.0953 27.3839 45.0519 27.5709 44.9833C27.9408 44.8477 28.434 44.6033 28.884 44.1676C29.8564 43.2258 30.365 41.6608 29.6931 39.2899L27.7689 39.8352C28.2928 41.6841 27.8102 42.4233 27.4926 42.7309C27.2975 42.9198 27.0709 43.0365 26.8824 43.1056C26.7901 43.1394 26.7136 43.1594 26.6651 43.1702C26.6411 43.1756 26.6248 43.1785 26.6177 43.1797C26.6142 43.1803 26.6131 43.1804 26.6146 43.1802C26.6154 43.1801 26.6168 43.1799 26.6189 43.1796C26.6199 43.1795 26.6211 43.1793 26.6225 43.1792C26.6232 43.1791 26.624 43.179 26.6248 43.1789C26.6251 43.1788 26.6258 43.1788 26.626 43.1787C26.6266 43.1787 26.6272 43.1786 26.7487 44.1712ZM28.731 39.5626C29.7053 39.3373 29.7051 39.3368 29.705 39.3362C29.705 39.336 29.7048 39.3354 29.7047 39.335C29.7045 39.3341 29.7043 39.3331 29.704 39.3319C29.7035 39.3296 29.7028 39.3267 29.702 39.3233C29.7003 39.3165 29.6981 39.3075 29.6954 39.2964C29.6899 39.2742 29.6821 39.2436 29.6719 39.2051C29.6515 39.1279 29.6212 39.0188 29.5796 38.8811C29.4964 38.6058 29.3678 38.2159 29.1816 37.7388C28.8096 36.7854 28.2061 35.4794 27.2734 34.0444C25.4049 31.1696 22.2131 27.776 16.937 25.6823L16.1993 27.5413C21.0176 29.4533 23.9072 32.5352 25.5965 35.1343C26.4427 36.4363 26.9872 37.6168 27.3185 38.4658C27.4839 38.8899 27.5958 39.2301 27.6651 39.4596C27.6998 39.5744 27.7238 39.6613 27.7386 39.7172C27.746 39.7451 27.7511 39.7652 27.754 39.7772C27.7555 39.7831 27.7565 39.787 27.7569 39.7888C27.7571 39.7897 27.7572 39.7901 27.7572 39.7899C27.7571 39.7899 27.7571 39.7896 27.757 39.7893C27.757 39.7891 27.7569 39.7888 27.7569 39.7887C27.7568 39.7883 27.7567 39.7878 28.731 39.5626ZM16.5681 26.6118C16.9252 25.6777 16.9255 25.6778 16.9258 25.6779C16.9258 25.6779 16.926 25.678 16.9261 25.6781C16.9263 25.6781 16.9264 25.6782 16.9263 25.6781C16.9261 25.6781 16.9254 25.6778 16.9242 25.6773C16.9218 25.6764 16.9173 25.6746 16.9107 25.672C16.8976 25.6668 16.8763 25.6583 16.8473 25.6464C16.7893 25.6226 16.7004 25.5852 16.5841 25.5339C16.3515 25.4311 16.0098 25.2724 15.5865 25.0539C14.7392 24.6163 13.5702 23.9415 12.2982 22.9985C9.74873 21.1086 6.82783 18.1743 5.20969 13.9544L3.34227 14.6705C5.13921 19.3566 8.36438 22.572 11.1072 24.6052C12.4813 25.6239 13.7451 26.354 14.6689 26.831C15.1313 27.0697 15.5097 27.2457 15.7759 27.3633C15.9091 27.4221 16.0142 27.4664 16.0879 27.4966C16.1247 27.5117 16.1537 27.5233 16.1744 27.5315C16.1847 27.5356 16.193 27.5389 16.1991 27.5412C16.2022 27.5424 16.2047 27.5434 16.2067 27.5442C16.2077 27.5446 16.2086 27.5449 16.2093 27.5452C16.2097 27.5453 16.2101 27.5455 16.2103 27.5456C16.2107 27.5457 16.2111 27.5459 16.5681 26.6118ZM4.27598 14.3124C5.25696 14.1183 5.25691 14.1181 5.25686 14.1178C5.25684 14.1177 5.25678 14.1174 5.25674 14.1172C5.25667 14.1168 5.25658 14.1164 5.25648 14.1159C5.25629 14.115 5.25607 14.1139 5.25582 14.1126C5.25531 14.1101 5.25468 14.107 5.25392 14.1033C5.25241 14.096 5.25038 14.0863 5.24783 14.0745C5.24274 14.0509 5.23555 14.0185 5.22622 13.979C5.20762 13.9002 5.18012 13.7911 5.1432 13.6637C5.07142 13.416 4.95522 13.0681 4.78458 12.7331C4.62946 12.4286 4.35467 11.9821 3.89546 11.7161C3.64299 11.5699 3.33253 11.4777 2.98441 11.5046C2.64346 11.531 2.34303 11.6654 2.09098 11.8448L3.25054 13.4743C3.27859 13.4543 3.2384 13.491 3.13841 13.4987C3.03127 13.507 2.9425 13.4754 2.89304 13.4468C2.83984 13.416 2.89632 13.4325 3.00246 13.6409C3.09308 13.8188 3.16811 14.0336 3.22224 14.2204C3.24828 14.3102 3.26741 14.3863 3.2797 14.4384C3.28581 14.4643 3.29013 14.4838 3.29269 14.4957C3.29397 14.5016 3.2948 14.5056 3.29518 14.5075C3.29537 14.5084 3.29546 14.5088 3.29542 14.5087C3.29541 14.5086 3.29537 14.5084 3.29529 14.508C3.29526 14.5078 3.29522 14.5076 3.29517 14.5074C3.29514 14.5073 3.2951 14.507 3.29509 14.507C3.29504 14.5068 3.295 14.5065 4.27598 14.3124Z" fill="#1B100F" mask="url(#path-3-inside-2_27_656)"/>
</svg>
