<svg width="196" height="51" viewBox="0 0 196 51" fill="none" xmlns="http://www.w3.org/2000/svg">
<g clip-path="url(#clip0_36_430)">
<path d="M9.32189 50.7999V49.1409H16.1733V48.5201C16.1733 43.3869 16.1786 38.2537 16.16 33.1205C16.16 32.8239 16.0376 32.4721 15.8513 32.2398C10.7576 25.8677 5.64669 19.506 0.539745 13.143C0.221725 12.7466 -0.189439 12.3673 0.0939848 11.7924C0.368094 11.2333 0.91099 11.3225 1.40598 11.3225C8.27202 11.3225 15.1394 11.3186 22.0054 11.3317C22.4099 11.3317 22.5763 11.2241 22.688 10.8369C23.6022 7.67246 24.531 4.51196 25.485 1.35934C25.5901 1.01153 25.8816 0.71884 26.0878 0.399902C27.3186 0.399902 28.5495 0.399902 29.7803 0.399902V2.0589H27.0339C26.1251 5.1459 25.2256 8.20403 24.3141 11.2989H26.4324C26.8502 8.89965 28.1237 7.09628 30.3857 6.05678C32.1288 5.25484 33.9212 5.2404 35.7149 5.91896C39.1812 7.22884 40.903 11.207 39.5245 14.6642C38.2444 17.8732 34.0157 20.283 29.6659 17.9218C28.8262 18.9678 27.98 20.0178 27.1363 21.0705C24.1438 24.7993 21.1498 28.5281 18.1652 32.2635C18.0229 32.442 17.8925 32.6926 17.8911 32.9105C17.8765 38.2262 17.8805 43.5405 17.8818 48.8561C17.8818 48.9204 17.8951 48.986 17.9071 49.1015H24.692V50.8012H9.32322L9.32189 50.7999ZM2.62085 13.0262C4.17236 14.9595 5.66266 16.8245 7.16893 18.6765C7.26341 18.7933 7.47365 18.8773 7.63066 18.8786C11.7356 18.8891 15.8393 18.8838 19.9443 18.893C20.2344 18.893 20.3421 18.7893 20.4167 18.5242C20.7719 17.2629 21.1485 16.0082 21.5184 14.7508C21.6834 14.1877 21.8511 13.626 22.0281 13.0262H2.62085ZM17.0182 30.968C19.8072 27.4925 22.5537 24.0722 25.3639 20.5691C24.0972 20.5691 22.9542 20.5612 21.8112 20.5822C21.7047 20.5848 21.5437 20.7515 21.5051 20.8723C21.2869 21.5417 21.0979 22.2215 20.8983 22.8962C20.4499 24.4173 20.0015 25.9385 19.5384 27.507C18.9809 27.3482 18.4606 27.1998 17.9058 27.041C18.5418 24.878 19.1685 22.7465 19.7979 20.6032H8.70049C11.4868 24.0761 14.2266 27.4899 17.0169 30.9654L17.0182 30.968ZM30.7703 16.5437C32.4722 17.5923 35.0309 17.3167 36.5559 15.9478C38.287 14.3938 38.8006 11.9263 37.796 9.98509C36.7035 7.87196 34.4761 6.76815 32.2087 7.2144C30.1675 7.61603 28.3326 9.48897 28.2141 11.3238C28.3978 11.3238 28.5787 11.3238 28.7597 11.3238C30.2061 11.3238 31.6538 11.3265 33.1002 11.3238C33.4861 11.3238 33.844 11.4564 33.9358 11.8134C34.0077 12.093 33.9358 12.4526 33.8108 12.7243C33.6697 13.0288 33.3956 13.2729 33.1787 13.5433C32.3763 14.5434 31.5753 15.5422 30.7703 16.5463V16.5437ZM31.4249 13.0157H23.8111C23.2376 14.9608 22.6668 16.9007 22.0813 18.8865C23.5942 18.8865 25.0379 18.8957 26.4817 18.8733C26.6413 18.8707 26.8356 18.7185 26.95 18.582C27.5209 17.8995 28.0691 17.1999 28.6266 16.5056C29.5408 15.3663 30.4536 14.2271 31.4263 13.0157H31.4249Z" fill="black"/>
</g>
<g clip-path="url(#clip1_36_430)">
<path d="M61.3219 50.7999V49.1409H68.1733V48.5201C68.1733 43.3869 68.1786 38.2537 68.16 33.1205C68.16 32.8239 68.0376 32.4721 67.8513 32.2398C62.7576 25.8677 57.6467 19.506 52.5397 13.143C52.2217 12.7466 51.8106 12.3673 52.094 11.7924C52.3681 11.2333 52.911 11.3225 53.406 11.3225C60.272 11.3225 67.1394 11.3186 74.0054 11.3317C74.4099 11.3317 74.5763 11.2241 74.688 10.8369C75.6022 7.67246 76.531 4.51196 77.485 1.35934C77.5901 1.01153 77.8816 0.71884 78.0878 0.399902C79.3186 0.399902 80.5495 0.399902 81.7803 0.399902V2.0589H79.0339C78.1251 5.1459 77.2256 8.20403 76.3141 11.2989H78.4324C78.8502 8.89965 80.1237 7.09628 82.3857 6.05678C84.1288 5.25484 85.9212 5.2404 87.7149 5.91896C91.1812 7.22884 92.903 11.207 91.5245 14.6642C90.2444 17.8732 86.0157 20.283 81.6659 17.9218C80.8262 18.9678 79.98 20.0178 79.1363 21.0705C76.1438 24.7993 73.1498 28.5281 70.1652 32.2635C70.0229 32.442 69.8925 32.6926 69.8911 32.9105C69.8765 38.2262 69.8805 43.5405 69.8818 48.8561C69.8818 48.9204 69.8951 48.986 69.9071 49.1015H76.692V50.8012H61.3232L61.3219 50.7999ZM54.6208 13.0262C56.1724 14.9595 57.6627 16.8245 59.1689 18.6765C59.2634 18.7933 59.4736 18.8773 59.6307 18.8786C63.7356 18.8891 67.8393 18.8838 71.9443 18.893C72.2344 18.893 72.3421 18.7893 72.4167 18.5242C72.7719 17.2629 73.1485 16.0082 73.5184 14.7508C73.6834 14.1877 73.8511 13.626 74.0281 13.0262H54.6208ZM69.0182 30.968C71.8072 27.4925 74.5537 24.0722 77.3639 20.5691C76.0972 20.5691 74.9542 20.5612 73.8112 20.5822C73.7047 20.5848 73.5437 20.7515 73.5051 20.8723C73.2869 21.5417 73.0979 22.2215 72.8983 22.8962C72.4499 24.4173 72.0015 25.9385 71.5384 27.507C70.9809 27.3482 70.4606 27.1998 69.9058 27.041C70.5418 24.878 71.1685 22.7465 71.7979 20.6032H60.7005C63.4868 24.0761 66.2266 27.4899 69.0169 30.9654L69.0182 30.968ZM82.7703 16.5437C84.4722 17.5923 87.0309 17.3167 88.5559 15.9478C90.287 14.3938 90.8006 11.9263 89.796 9.98509C88.7035 7.87196 86.4761 6.76815 84.2087 7.2144C82.1675 7.61603 80.3326 9.48897 80.2141 11.3238C80.3978 11.3238 80.5787 11.3238 80.7597 11.3238C82.2061 11.3238 83.6538 11.3265 85.1002 11.3238C85.4861 11.3238 85.844 11.4564 85.9358 11.8134C86.0077 12.093 85.9358 12.4526 85.8108 12.7243C85.6697 13.0288 85.3956 13.2729 85.1787 13.5433C84.3763 14.5434 83.5753 15.5422 82.7703 16.5463V16.5437ZM83.4249 13.0157H75.8111C75.2376 14.9608 74.6668 16.9007 74.0813 18.8865C75.5942 18.8865 77.0379 18.8957 78.4817 18.8733C78.6413 18.8707 78.8356 18.7185 78.95 18.582C79.5209 17.8995 80.0691 17.1999 80.6266 16.5056C81.5408 15.3663 82.4536 14.2271 83.4263 13.0157H83.4249Z" fill="black"/>
</g>
<g clip-path="url(#clip2_36_430)">
<path d="M113.322 50.7999V49.1409H120.173V48.5201C120.173 43.3869 120.179 38.2537 120.16 33.1205C120.16 32.8239 120.038 32.4721 119.851 32.2398C114.758 25.8677 109.647 19.506 104.54 13.143C104.222 12.7466 103.811 12.3673 104.094 11.7924C104.368 11.2333 104.911 11.3225 105.406 11.3225C112.272 11.3225 119.139 11.3186 126.005 11.3317C126.41 11.3317 126.576 11.2241 126.688 10.8369C127.602 7.67246 128.531 4.51196 129.485 1.35934C129.59 1.01153 129.882 0.71884 130.088 0.399902C131.319 0.399902 132.549 0.399902 133.78 0.399902V2.0589H131.034C130.125 5.1459 129.226 8.20403 128.314 11.2989H130.432C130.85 8.89965 132.124 7.09628 134.386 6.05678C136.129 5.25484 137.921 5.2404 139.715 5.91896C143.181 7.22884 144.903 11.207 143.524 14.6642C142.244 17.8732 138.016 20.283 133.666 17.9218C132.826 18.9678 131.98 20.0178 131.136 21.0705C128.144 24.7993 125.15 28.5281 122.165 32.2635C122.023 32.442 121.892 32.6926 121.891 32.9105C121.876 38.2262 121.88 43.5405 121.882 48.8561C121.882 48.9204 121.895 48.986 121.907 49.1015H128.692V50.8012H113.323L113.322 50.7999ZM106.621 13.0262C108.172 14.9595 109.663 16.8245 111.169 18.6765C111.263 18.7933 111.474 18.8773 111.631 18.8786C115.736 18.8891 119.839 18.8838 123.944 18.893C124.234 18.893 124.342 18.7893 124.417 18.5242C124.772 17.2629 125.149 16.0082 125.518 14.7508C125.683 14.1877 125.851 13.626 126.028 13.0262H106.621ZM121.018 30.968C123.807 27.4925 126.554 24.0722 129.364 20.5691C128.097 20.5691 126.954 20.5612 125.811 20.5822C125.705 20.5848 125.544 20.7515 125.505 20.8723C125.287 21.5417 125.098 22.2215 124.898 22.8962C124.45 24.4173 124.002 25.9385 123.538 27.507C122.981 27.3482 122.461 27.1998 121.906 27.041C122.542 24.878 123.169 22.7465 123.798 20.6032H112.7C115.487 24.0761 118.227 27.4899 121.017 30.9654L121.018 30.968ZM134.77 16.5437C136.472 17.5923 139.031 17.3167 140.556 15.9478C142.287 14.3938 142.801 11.9263 141.796 9.98509C140.704 7.87196 138.476 6.76815 136.209 7.2144C134.168 7.61603 132.333 9.48897 132.214 11.3238C132.398 11.3238 132.579 11.3238 132.76 11.3238C134.206 11.3238 135.654 11.3265 137.1 11.3238C137.486 11.3238 137.844 11.4564 137.936 11.8134C138.008 12.093 137.936 12.4526 137.811 12.7243C137.67 13.0288 137.396 13.2729 137.179 13.5433C136.376 14.5434 135.575 15.5422 134.77 16.5463V16.5437ZM135.425 13.0157H127.811C127.238 14.9608 126.667 16.9007 126.081 18.8865C127.594 18.8865 129.038 18.8957 130.482 18.8733C130.641 18.8707 130.836 18.7185 130.95 18.582C131.521 17.8995 132.069 17.1999 132.627 16.5056C133.541 15.3663 134.454 14.2271 135.426 13.0157H135.425Z" fill="black"/>
</g>
<g clip-path="url(#clip3_36_430)">
<path d="M165.322 50.7999V49.1409H172.173V48.5201C172.173 43.3869 172.179 38.2537 172.16 33.1205C172.16 32.8239 172.038 32.4721 171.851 32.2398C166.758 25.8677 161.647 19.506 156.54 13.143C156.222 12.7466 155.811 12.3673 156.094 11.7924C156.368 11.2333 156.911 11.3225 157.406 11.3225C164.272 11.3225 171.139 11.3186 178.005 11.3317C178.41 11.3317 178.576 11.2241 178.688 10.8369C179.602 7.67246 180.531 4.51196 181.485 1.35934C181.59 1.01153 181.882 0.71884 182.088 0.399902C183.319 0.399902 184.549 0.399902 185.78 0.399902V2.0589H183.034C182.125 5.1459 181.226 8.20403 180.314 11.2989H182.432C182.85 8.89965 184.124 7.09628 186.386 6.05678C188.129 5.25484 189.921 5.2404 191.715 5.91896C195.181 7.22884 196.903 11.207 195.524 14.6642C194.244 17.8732 190.016 20.283 185.666 17.9218C184.826 18.9678 183.98 20.0178 183.136 21.0705C180.144 24.7993 177.15 28.5281 174.165 32.2635C174.023 32.442 173.892 32.6926 173.891 32.9105C173.876 38.2262 173.88 43.5405 173.882 48.8561C173.882 48.9204 173.895 48.986 173.907 49.1015H180.692V50.8012H165.323L165.322 50.7999ZM158.621 13.0262C160.172 14.9595 161.663 16.8245 163.169 18.6765C163.263 18.7933 163.474 18.8773 163.631 18.8786C167.736 18.8891 171.839 18.8838 175.944 18.893C176.234 18.893 176.342 18.7893 176.417 18.5242C176.772 17.2629 177.149 16.0082 177.518 14.7508C177.683 14.1877 177.851 13.626 178.028 13.0262H158.621ZM173.018 30.968C175.807 27.4925 178.554 24.0722 181.364 20.5691C180.097 20.5691 178.954 20.5612 177.811 20.5822C177.705 20.5848 177.544 20.7515 177.505 20.8723C177.287 21.5417 177.098 22.2215 176.898 22.8962C176.45 24.4173 176.002 25.9385 175.538 27.507C174.981 27.3482 174.461 27.1998 173.906 27.041C174.542 24.878 175.169 22.7465 175.798 20.6032H164.7C167.487 24.0761 170.227 27.4899 173.017 30.9654L173.018 30.968ZM186.77 16.5437C188.472 17.5923 191.031 17.3167 192.556 15.9478C194.287 14.3938 194.801 11.9263 193.796 9.98509C192.704 7.87196 190.476 6.76815 188.209 7.2144C186.168 7.61603 184.333 9.48897 184.214 11.3238C184.398 11.3238 184.579 11.3238 184.76 11.3238C186.206 11.3238 187.654 11.3265 189.1 11.3238C189.486 11.3238 189.844 11.4564 189.936 11.8134C190.008 12.093 189.936 12.4526 189.811 12.7243C189.67 13.0288 189.396 13.2729 189.179 13.5433C188.376 14.5434 187.575 15.5422 186.77 16.5463V16.5437ZM187.425 13.0157H179.811C179.238 14.9608 178.667 16.9007 178.081 18.8865C179.594 18.8865 181.038 18.8957 182.482 18.8733C182.641 18.8707 182.836 18.7185 182.95 18.582C183.521 17.8995 184.069 17.1999 184.627 16.5056C185.541 15.3663 186.454 14.2271 187.426 13.0157H187.425Z" fill="black"/>
</g>
<defs>
<clipPath id="clip0_36_430">
<rect width="40" height="50.4" fill="white" transform="translate(0 0.399902)"/>
</clipPath>
<clipPath id="clip1_36_430">
<rect width="40" height="50.4" fill="white" transform="translate(52 0.399902)"/>
</clipPath>
<clipPath id="clip2_36_430">
<rect width="40" height="50.4" fill="white" transform="translate(104 0.399902)"/>
</clipPath>
<clipPath id="clip3_36_430">
<rect width="40" height="50.4" fill="white" transform="translate(156 0.399902)"/>
</clipPath>
</defs>
</svg>
