<svg width="92" height="51" viewBox="0 0 92 51" fill="none" xmlns="http://www.w3.org/2000/svg">
<g clip-path="url(#clip0_36_422)">
<path d="M9.32189 50.4V48.741H16.1733V48.1202C16.1733 42.987 16.1786 37.8538 16.16 32.7206C16.16 32.424 16.0376 32.0722 15.8513 31.8399C10.7576 25.4677 5.64669 19.1061 0.539745 12.7431C0.221725 12.3467 -0.189439 11.9674 0.0939848 11.3925C0.368094 10.8334 0.91099 10.9226 1.40598 10.9226C8.27202 10.9226 15.1394 10.9187 22.0054 10.9318C22.4099 10.9318 22.5763 10.8242 22.688 10.437C23.6022 7.27256 24.531 4.11206 25.485 0.959437C25.5901 0.611625 25.8816 0.318937 26.0878 0C27.3186 0 28.5495 0 29.7803 0V1.659H27.0339C26.1251 4.746 25.2256 7.80412 24.3141 10.899H26.4324C26.8502 8.49975 28.1237 6.69637 30.3857 5.65687C32.1288 4.85494 33.9212 4.8405 35.7149 5.51906C39.1812 6.82894 40.903 10.8071 39.5245 14.2642C38.2444 17.4733 34.0157 19.8831 29.6659 17.5219C28.8262 18.5679 27.98 19.6179 27.1363 20.6706C24.1438 24.3994 21.1498 28.1282 18.1652 31.8636C18.0229 32.0421 17.8925 32.2927 17.8911 32.5106C17.8765 37.8262 17.8805 43.1406 17.8818 48.4562C17.8818 48.5205 17.8951 48.5861 17.9071 48.7016H24.692V50.4013H9.32322L9.32189 50.4ZM2.62085 12.6262C4.17236 14.5596 5.66266 16.4246 7.16893 18.2766C7.26341 18.3934 7.47365 18.4774 7.63066 18.4787C11.7356 18.4892 15.8393 18.4839 19.9443 18.4931C20.2344 18.4931 20.3421 18.3894 20.4167 18.1243C20.7719 16.863 21.1485 15.6082 21.5184 14.3509C21.6834 13.7878 21.8511 13.2261 22.0281 12.6262H2.62085ZM17.0182 30.5681C19.8072 27.0926 22.5537 23.6722 25.3639 20.1692C24.0972 20.1692 22.9542 20.1613 21.8112 20.1823C21.7047 20.1849 21.5437 20.3516 21.5051 20.4724C21.2869 21.1417 21.0979 21.8216 20.8983 22.4962C20.4499 24.0174 20.0015 25.5386 19.5384 27.1071C18.9809 26.9482 18.4606 26.7999 17.9058 26.6411C18.5418 24.4781 19.1685 22.3466 19.7979 20.2033H8.70049C11.4868 23.6762 14.2266 27.09 17.0169 30.5655L17.0182 30.5681ZM30.7703 16.1437C32.4722 17.1924 35.0309 16.9168 36.5559 15.5479C38.287 13.9939 38.8006 11.5264 37.796 9.58519C36.7035 7.47206 34.4761 6.36825 32.2087 6.8145C30.1675 7.21612 28.3326 9.08906 28.2141 10.9239C28.3978 10.9239 28.5787 10.9239 28.7597 10.9239C30.2061 10.9239 31.6538 10.9266 33.1002 10.9239C33.4861 10.9239 33.844 11.0565 33.9358 11.4135C34.0077 11.6931 33.9358 12.0527 33.8108 12.3244C33.6697 12.6289 33.3956 12.873 33.1787 13.1434C32.3763 14.1435 31.5753 15.1423 30.7703 16.1464V16.1437ZM31.4249 12.6157H23.8111C23.2376 14.5609 22.6668 16.5007 22.0813 18.4866C23.5942 18.4866 25.0379 18.4957 26.4817 18.4734C26.6413 18.4708 26.8356 18.3186 26.95 18.1821C27.5209 17.4996 28.0691 16.8 28.6266 16.1057C29.5408 14.9664 30.4536 13.8272 31.4263 12.6157H31.4249Z" fill="black"/>
</g>
<g clip-path="url(#clip1_36_422)">
<path d="M61.3219 50.4V48.741H68.1733V48.1202C68.1733 42.987 68.1786 37.8538 68.16 32.7206C68.16 32.424 68.0376 32.0722 67.8513 31.8399C62.7576 25.4677 57.6467 19.1061 52.5397 12.7431C52.2217 12.3467 51.8106 11.9674 52.094 11.3925C52.3681 10.8334 52.911 10.9226 53.406 10.9226C60.272 10.9226 67.1394 10.9187 74.0054 10.9318C74.4099 10.9318 74.5763 10.8242 74.688 10.437C75.6022 7.27256 76.531 4.11206 77.485 0.959437C77.5901 0.611625 77.8816 0.318937 78.0878 0C79.3186 0 80.5495 0 81.7803 0V1.659H79.0339C78.1251 4.746 77.2256 7.80412 76.3141 10.899H78.4324C78.8502 8.49975 80.1237 6.69637 82.3857 5.65687C84.1288 4.85494 85.9212 4.8405 87.7149 5.51906C91.1812 6.82894 92.903 10.8071 91.5245 14.2642C90.2444 17.4733 86.0157 19.8831 81.6659 17.5219C80.8262 18.5679 79.98 19.6179 79.1363 20.6706C76.1438 24.3994 73.1498 28.1282 70.1652 31.8636C70.0229 32.0421 69.8925 32.2927 69.8911 32.5106C69.8765 37.8262 69.8805 43.1406 69.8818 48.4562C69.8818 48.5205 69.8951 48.5861 69.9071 48.7016H76.692V50.4013H61.3232L61.3219 50.4ZM54.6208 12.6262C56.1724 14.5596 57.6627 16.4246 59.1689 18.2766C59.2634 18.3934 59.4736 18.4774 59.6307 18.4787C63.7356 18.4892 67.8393 18.4839 71.9443 18.4931C72.2344 18.4931 72.3421 18.3894 72.4167 18.1243C72.7719 16.863 73.1485 15.6082 73.5184 14.3509C73.6834 13.7878 73.8511 13.2261 74.0281 12.6262H54.6208ZM69.0182 30.5681C71.8072 27.0926 74.5537 23.6722 77.3639 20.1692C76.0972 20.1692 74.9542 20.1613 73.8112 20.1823C73.7047 20.1849 73.5437 20.3516 73.5051 20.4724C73.2869 21.1417 73.0979 21.8216 72.8983 22.4962C72.4499 24.0174 72.0015 25.5386 71.5384 27.1071C70.9809 26.9482 70.4606 26.7999 69.9058 26.6411C70.5418 24.4781 71.1685 22.3466 71.7979 20.2033H60.7005C63.4868 23.6762 66.2266 27.09 69.0169 30.5655L69.0182 30.5681ZM82.7703 16.1437C84.4722 17.1924 87.0309 16.9168 88.5559 15.5479C90.287 13.9939 90.8006 11.5264 89.796 9.58519C88.7035 7.47206 86.4761 6.36825 84.2087 6.8145C82.1675 7.21612 80.3326 9.08906 80.2141 10.9239C80.3978 10.9239 80.5787 10.9239 80.7597 10.9239C82.2061 10.9239 83.6538 10.9266 85.1002 10.9239C85.4861 10.9239 85.844 11.0565 85.9358 11.4135C86.0077 11.6931 85.9358 12.0527 85.8108 12.3244C85.6697 12.6289 85.3956 12.873 85.1787 13.1434C84.3763 14.1435 83.5753 15.1423 82.7703 16.1464V16.1437ZM83.4249 12.6157H75.8111C75.2376 14.5609 74.6668 16.5007 74.0813 18.4866C75.5942 18.4866 77.0379 18.4957 78.4817 18.4734C78.6413 18.4708 78.8356 18.3186 78.95 18.1821C79.5209 17.4996 80.0691 16.8 80.6266 16.1057C81.5408 14.9664 82.4536 13.8272 83.4263 12.6157H83.4249Z" fill="black"/>
</g>
<defs>
<clipPath id="clip0_36_422">
<rect width="40" height="50.4" fill="white"/>
</clipPath>
<clipPath id="clip1_36_422">
<rect width="40" height="50.4" fill="white" transform="translate(52)"/>
</clipPath>
</defs>
</svg>
