<svg width="54" height="91" viewBox="0 0 54 91" fill="none" xmlns="http://www.w3.org/2000/svg">
<path d="M42.2124 65.2888L41.8824 67.3658C40.5623 75.5489 35.4686 80.0533 27.5417 80.0533C12.8026 80.0533 11.6568 64.2253 11.6568 59.3705C11.6568 56.7429 11.9744 54.0903 12.5784 51.7005L12.6158 51.5441H52.6674V41.04H4.55812L3.87316 42.3788C2.92043 44.2306 2.12961 46.2451 1.51937 48.3847C0.51061 51.8444 0 55.5417 0 59.3705C0 79.0023 10.2994 90.72 27.548 90.72C41.6333 90.72 50.8429 82.7184 53.4769 68.2042L54 65.2888H42.2124Z" fill="#1B100F"/>
<path d="M30.7592 21.4885C30.7592 21.4885 35.078 14.8505 29.702 6.61663C29.702 6.61663 24.5581 -1.3752 16.4748 0.207467C16.4748 0.207467 14.5732 0.469065 15.2758 3.30741C15.2758 3.30741 16.4748 9.33072 22.4954 12.0644C22.4954 12.0644 27.794 14.3796 29.8052 20.3767C29.8052 20.3767 30.0888 22.0248 30.7592 21.4951" fill="#1B100F"/>
<path d="M12.3979 6.57692C12.3979 6.57692 8.13548 12.5958 13.5341 20.0026C13.5341 20.0026 18.7016 27.1969 26.7386 25.7202C26.7386 25.7202 28.6323 25.484 27.9197 22.9205C27.9197 22.9205 26.6872 17.4864 20.6724 15.0529C20.6724 15.0529 15.3829 12.9915 13.3479 7.58104C13.3479 7.58104 13.0591 6.09257 12.3915 6.57692" fill="#1B100F"/>
</svg>
