<svg width="31" height="53" viewBox="0 0 31 53" fill="none" xmlns="http://www.w3.org/2000/svg">
<path d="M24.2331 37.4806L24.0436 38.673C23.2858 43.3706 20.3616 45.9565 15.811 45.9565C7.34963 45.9565 6.69188 36.8701 6.69188 34.0831C6.69188 32.5746 6.8742 31.0518 7.22095 29.6799L7.24239 29.5901H30.235V23.56H2.6167L2.22348 24.3286C1.67655 25.3917 1.22256 26.5481 0.872233 27.7764C0.293128 29.7625 0 31.8851 0 34.0831C0 45.3531 5.9126 52.08 15.8146 52.08C23.9006 52.08 29.1876 47.4865 30.6997 39.1542L31 37.4806H24.2331Z" fill="white"/>
<path d="M17.658 12.336C17.658 12.336 20.1373 8.52526 17.0511 3.79844C17.0511 3.79844 14.0981 -0.789469 9.45766 0.119101C9.45766 0.119101 8.36602 0.269278 8.76937 1.8987C8.76937 1.8987 9.45766 5.35652 12.9139 6.92587C12.9139 6.92587 15.9558 8.25494 17.1103 11.6977C17.1103 11.6977 17.2731 12.6439 17.658 12.3398" fill="white"/>
<path d="M7.11722 3.77564C7.11722 3.77564 4.67029 7.2309 7.7695 11.483C7.7695 11.483 10.736 15.613 15.3499 14.7653C15.3499 14.7653 16.437 14.6297 16.0279 13.1581C16.0279 13.1581 15.3204 10.0385 11.8674 8.64148C11.8674 8.64148 8.83082 7.45808 7.66263 4.35208C7.66263 4.35208 7.49679 3.49759 7.11353 3.77564" fill="white"/>
</svg>
