<svg width="54" height="90" viewBox="0 0 54 90" fill="none" xmlns="http://www.w3.org/2000/svg">
<path d="M42.2124 64.4897L41.8824 66.5413C40.5623 74.6242 35.4686 79.0735 27.5417 79.0735C12.8026 79.0735 11.6568 63.4392 11.6568 58.6438C11.6568 56.0484 11.9744 53.4283 12.5784 51.0677L12.6158 50.9132H52.6674V40.5377H4.55812L3.87316 41.8601C2.92043 43.6893 2.12961 45.6791 1.51937 47.7925C0.51061 51.2098 0 54.8619 0 58.6438C0 78.0353 10.2994 89.6097 27.548 89.6097C41.6333 89.6097 50.8429 81.706 53.4769 67.3694L54 64.4897H42.2124Z" fill="white"/>
<path d="M30.7592 21.2255C30.7592 21.2255 35.078 14.6687 29.702 6.53565C29.702 6.53565 24.5581 -1.35837 16.4748 0.204928C16.4748 0.204928 14.5732 0.463324 15.2758 3.26693C15.2758 3.26693 16.4748 9.21652 22.4954 11.9168C22.4954 11.9168 27.794 14.2036 29.8052 20.1273C29.8052 20.1273 30.0888 21.7552 30.7592 21.232" fill="white"/>
<path d="M12.3979 6.49642C12.3979 6.49642 8.13548 12.4416 13.5341 19.7578C13.5341 19.7578 18.7016 26.864 26.7386 25.4054C26.7386 25.4054 28.6323 25.1721 27.9197 22.64C27.9197 22.64 26.6872 17.2724 20.6724 14.8687C20.6724 14.8687 15.3829 12.8325 13.3479 7.48826C13.3479 7.48826 13.0591 6.01801 12.3915 6.49642" fill="white"/>
</svg>
